M48
;DRILL file {KiCad 4.0.6} date 07/11/17 15:01:40
;FORMAT={3:3/ absolute / metric / suppress leading zeros}
FMAT,2
METRIC,TZ
T1C0.400
T2C0.700
T3C0.762
T4C0.800
T5C1.000
T6C1.200
%
G90
G05
M71
T1
X85000Y-98500
X95500Y-69000
X104000Y-72000
X104000Y-84000
X106000Y-84000
X108000Y-94000
X110000Y-84000
X111000Y-72000
X114000Y-88000
X115000Y-70000
X115000Y-73500
X115000Y-114000
X115000Y-116000
X115000Y-117000
X118000Y-84000
X119000Y-72000
X119000Y-87000
X120000Y-88000
X121000Y-73500
X123500Y-100000
X126000Y-96000
X127000Y-101500
X127000Y-111000
X127000Y-112000
X127000Y-114000
X127500Y-95000
X128000Y-84000
X129000Y-100000
X133000Y-86500
X136000Y-88500
X138500Y-98000
X139000Y-104500
X139000Y-111000
X139000Y-112000
X139000Y-114000
X141000Y-74000
X141500Y-92500
X142000Y-86000
X147000Y-83000
T2
X78420Y-99500
X83500Y-99500
X117000Y-88000
X117000Y-95620
X133000Y-77000
X133000Y-84620
X136000Y-74000
X136000Y-86000
X143620Y-74000
X143620Y-86000
X147000Y-77000
X147000Y-84620
T3
X102000Y-80000
X103000Y-76000
X104000Y-80000
X105000Y-76000
X106000Y-80000
X107000Y-76000
X108000Y-80000
X109000Y-76000
X110000Y-80000
X111000Y-76000
X112000Y-80000
X113000Y-76000
X114000Y-80000
X115000Y-76000
X116000Y-80000
X117000Y-76000
X118000Y-80000
X119000Y-76000
X120000Y-80000
X121000Y-76000
X122000Y-80000
X123000Y-76000
X124000Y-80000
X125000Y-76000
X126000Y-80000
X127000Y-76000
X128000Y-80000
T4
X83000Y-77000
X83000Y-79000
X89000Y-77000
X89000Y-79000
X93000Y-76000
X93000Y-80000
X98000Y-76000
X98000Y-80000
X104000Y-88000
X104000Y-98160
X104000Y-102000
X108000Y-87840
X108000Y-98000
X109000Y-102000
X117000Y-99000
X117000Y-101000
X125000Y-102000
X126000Y-87840
X126000Y-98000
X130000Y-88000
X130000Y-98160
X130000Y-102000
X137000Y-78000
X137000Y-83000
X143000Y-78000
X143000Y-83000
T5
X115000Y-114000
X127000Y-114000
X139000Y-114000
X145000Y-100000
X145000Y-106000
X146000Y-89500
X146000Y-94500
T6
X86500Y-91000
X86500Y-108000
X94000Y-91000
X94000Y-108000
T0
M30
