G04 #@! TF.FileFunction,Copper,L2,Bot,Signal*
%FSLAX46Y46*%
G04 Gerber Fmt 4.6, Leading zero omitted, Abs format (unit mm)*
G04 Created by KiCad (PCBNEW 4.0.6) date 07/11/17 15:01:39*
%MOMM*%
%LPD*%
G01*
G04 APERTURE LIST*
%ADD10C,0.100000*%
%ADD11R,6.000000X3.000000*%
%ADD12R,1.600000X1.600000*%
%ADD13C,1.600000*%
%ADD14R,2.400000X2.400000*%
%ADD15C,2.400000*%
%ADD16R,8.000000X3.500000*%
%ADD17R,8.000000X3.000000*%
%ADD18C,1.400000*%
%ADD19O,1.400000X1.400000*%
%ADD20O,1.600000X1.600000*%
%ADD21O,1.524000X3.500000*%
%ADD22C,0.600000*%
%ADD23C,0.400000*%
%ADD24C,3.500000*%
%ADD25C,2.500000*%
%ADD26C,2.000000*%
%ADD27C,1.000000*%
%ADD28C,1.500000*%
%ADD29C,1.200000*%
%ADD30C,3.000000*%
G04 APERTURE END LIST*
D10*
D11*
X146000000Y-94500000D03*
D12*
X117000000Y-99000000D03*
D13*
X117000000Y-101000000D03*
X137000000Y-83000000D03*
X137000000Y-78000000D03*
X143000000Y-78000000D03*
X143000000Y-83000000D03*
X98000000Y-80000000D03*
X93000000Y-80000000D03*
X98000000Y-76000000D03*
X93000000Y-76000000D03*
D12*
X89000000Y-79000000D03*
D13*
X89000000Y-77000000D03*
D14*
X94000000Y-108000000D03*
D15*
X86500000Y-108000000D03*
D13*
X104000000Y-102000000D03*
X109000000Y-102000000D03*
X130000000Y-102000000D03*
X125000000Y-102000000D03*
D16*
X127000000Y-114000000D03*
D17*
X145000000Y-106000000D03*
X145000000Y-100000000D03*
D18*
X136000000Y-74000000D03*
D19*
X143620000Y-74000000D03*
D13*
X108000000Y-98000000D03*
D20*
X108000000Y-87840000D03*
D13*
X126000000Y-98000000D03*
D20*
X126000000Y-87840000D03*
D18*
X117000000Y-88000000D03*
D19*
X117000000Y-95620000D03*
D18*
X133000000Y-77000000D03*
D19*
X133000000Y-84620000D03*
D18*
X147000000Y-77000000D03*
D19*
X147000000Y-84620000D03*
D13*
X104000000Y-88000000D03*
D20*
X104000000Y-98160000D03*
D13*
X130000000Y-88000000D03*
D20*
X130000000Y-98160000D03*
D21*
X115000000Y-76000000D03*
X117000000Y-76000000D03*
X102000000Y-80000000D03*
X103000000Y-76000000D03*
X104000000Y-80000000D03*
X105000000Y-76000000D03*
X106000000Y-80000000D03*
X107000000Y-76000000D03*
X108000000Y-80000000D03*
X109000000Y-76000000D03*
X110000000Y-80000000D03*
X111000000Y-76000000D03*
X112000000Y-80000000D03*
X113000000Y-76000000D03*
X114000000Y-80000000D03*
X116000000Y-80000000D03*
X118000000Y-80000000D03*
X119000000Y-76000000D03*
X120000000Y-80000000D03*
X121000000Y-76000000D03*
X122000000Y-80000000D03*
X123000000Y-76000000D03*
X124000000Y-80000000D03*
X125000000Y-76000000D03*
X126000000Y-80000000D03*
X127000000Y-76000000D03*
X128000000Y-80000000D03*
D16*
X139000000Y-114000000D03*
X115000000Y-114000000D03*
D12*
X83000000Y-79000000D03*
D13*
X83000000Y-77000000D03*
D14*
X94000000Y-91000000D03*
D15*
X86500000Y-91000000D03*
D18*
X83500000Y-99500000D03*
D19*
X78420000Y-99500000D03*
D18*
X136000000Y-86000000D03*
D19*
X143620000Y-86000000D03*
D11*
X146000000Y-89500000D03*
D22*
X141500000Y-92500000D03*
X136000000Y-88500000D03*
X127000000Y-111000000D03*
X127000000Y-112000000D03*
X127000000Y-114000000D03*
X139000000Y-111000000D03*
X139000000Y-112000000D03*
X139000000Y-114000000D03*
X104000000Y-84000000D03*
X128000000Y-84000000D03*
X118000000Y-84000000D03*
X106000000Y-84000000D03*
X110000000Y-84000000D03*
X115000000Y-117000000D03*
X115000000Y-116000000D03*
X115000000Y-114000000D03*
X104000000Y-72000000D03*
X119000000Y-72000000D03*
X111000000Y-72000000D03*
X139000000Y-104500000D03*
X138500000Y-98000000D03*
X108000000Y-94000000D03*
X114000000Y-88000000D03*
X133000000Y-86500000D03*
X120000000Y-88000000D03*
X126000000Y-96000000D03*
X95500000Y-69000000D03*
X85000000Y-98500000D03*
X121000000Y-73500000D03*
X115000000Y-73500000D03*
X127500000Y-95000000D03*
X141000000Y-74000000D03*
X115000000Y-70000000D03*
X142000000Y-86000000D03*
X129000000Y-100000000D03*
X123500000Y-100000000D03*
X127000000Y-101500000D03*
X147000000Y-83000000D03*
X119000000Y-87000000D03*
D23*
X140000000Y-83000000D02*
X140000000Y-91000000D01*
X140000000Y-91000000D02*
X141500000Y-92500000D01*
X141500000Y-92500000D02*
X143000000Y-94000000D01*
X143000000Y-78000000D02*
X143000000Y-80000000D01*
X140000000Y-83000000D02*
X137000000Y-83000000D01*
X143000000Y-80000000D02*
X140000000Y-83000000D01*
X146000000Y-94500000D02*
X143000000Y-94500000D01*
X143000000Y-94500000D02*
X143000000Y-94000000D01*
D24*
X144000000Y-94500000D02*
X147000000Y-94500000D01*
X145000000Y-94500000D02*
X148000000Y-94500000D01*
D23*
X117000000Y-95620000D02*
X117000000Y-99000000D01*
X136000000Y-86000000D02*
X136000000Y-88500000D01*
D24*
X127000000Y-114000000D02*
X127000000Y-112000000D01*
X127000000Y-114000000D02*
X124000000Y-114000000D01*
X127000000Y-114000000D02*
X130000000Y-114000000D01*
D25*
X127000000Y-112000000D02*
X127000000Y-111000000D01*
X106000000Y-112000000D02*
X108000000Y-110000000D01*
X90500000Y-112000000D02*
X106000000Y-112000000D01*
X90500000Y-112000000D02*
X86500000Y-108000000D01*
X126000000Y-110000000D02*
X127000000Y-111000000D01*
X108000000Y-110000000D02*
X126000000Y-110000000D01*
D26*
X86000000Y-83000000D02*
X85000000Y-82000000D01*
X94000000Y-91000000D02*
X86000000Y-83000000D01*
X85000000Y-82000000D02*
X85000000Y-79000000D01*
D27*
X93000000Y-76000000D02*
X93000000Y-80000000D01*
X89000000Y-77000000D02*
X90000000Y-76000000D01*
X90000000Y-76000000D02*
X93000000Y-76000000D01*
X83000000Y-79000000D02*
X85000000Y-79000000D01*
X87000000Y-77000000D02*
X89000000Y-77000000D01*
X85000000Y-79000000D02*
X87000000Y-77000000D01*
D25*
X86500000Y-108000000D02*
X86500000Y-100500000D01*
X94000000Y-93000000D02*
X94000000Y-91000000D01*
X86500000Y-100500000D02*
X94000000Y-93000000D01*
D23*
X137000000Y-78000000D02*
X134000000Y-78000000D01*
X134000000Y-78000000D02*
X133000000Y-77000000D01*
X147000000Y-77000000D02*
X147000000Y-73000000D01*
X117000000Y-71000000D02*
X117000000Y-76000000D01*
X118000000Y-70000000D02*
X117000000Y-71000000D01*
X144000000Y-70000000D02*
X118000000Y-70000000D01*
X147000000Y-73000000D02*
X144000000Y-70000000D01*
X143000000Y-83000000D02*
X144000000Y-83000000D01*
X147000000Y-80000000D02*
X147000000Y-77000000D01*
X144000000Y-83000000D02*
X147000000Y-80000000D01*
D24*
X139000000Y-114000000D02*
X136000000Y-114000000D01*
X139000000Y-114000000D02*
X142000000Y-114000000D01*
X139000000Y-112000000D02*
X139000000Y-111000000D01*
X134000000Y-106000000D02*
X139000000Y-111000000D01*
X102000000Y-108000000D02*
X104000000Y-106000000D01*
X104000000Y-106000000D02*
X131000000Y-106000000D01*
X102000000Y-108000000D02*
X94000000Y-108000000D01*
X131000000Y-106000000D02*
X134000000Y-106000000D01*
D27*
X89000000Y-79000000D02*
X89000000Y-80000000D01*
D25*
X95000000Y-86000000D02*
X98000000Y-86000000D01*
X89000000Y-80000000D02*
X95000000Y-86000000D01*
X98000000Y-80000000D02*
X98000000Y-86000000D01*
X98000000Y-86000000D02*
X99000000Y-87000000D01*
D24*
X94000000Y-104000000D02*
X94000000Y-108000000D01*
X99000000Y-99000000D02*
X94000000Y-104000000D01*
X99000000Y-87000000D02*
X99000000Y-99000000D01*
X102000000Y-84000000D02*
X99000000Y-87000000D01*
X104000000Y-84000000D02*
X102000000Y-84000000D01*
D28*
X128000000Y-84000000D02*
X128000000Y-80000000D01*
X118000000Y-80000000D02*
X118000000Y-84000000D01*
X106000000Y-80000000D02*
X106000000Y-84000000D01*
X110000000Y-84000000D02*
X110000000Y-80000000D01*
D27*
X109000000Y-76000000D02*
X109000000Y-77641476D01*
X109000000Y-77641476D02*
X110000000Y-78641476D01*
X110000000Y-78641476D02*
X110000000Y-80000000D01*
D23*
X78420000Y-99500000D02*
X78500000Y-99500000D01*
X78500000Y-99500000D02*
X79000000Y-99000000D01*
D24*
X115000000Y-114000000D02*
X112000000Y-114000000D01*
X115000000Y-114000000D02*
X118000000Y-114000000D01*
D25*
X98000000Y-76000000D02*
X98000000Y-72000000D01*
D24*
X84000000Y-116000000D02*
X106000000Y-116000000D01*
X79000000Y-111000000D02*
X84000000Y-116000000D01*
X79000000Y-99000000D02*
X79000000Y-111000000D01*
X79000000Y-99000000D02*
X86500000Y-91500000D01*
X106000000Y-116000000D02*
X115000000Y-116000000D01*
D28*
X83000000Y-77000000D02*
X80500000Y-74500000D01*
D27*
X81000000Y-75000000D02*
X81000000Y-74000000D01*
X80500000Y-74500000D02*
X81000000Y-75000000D01*
D24*
X104000000Y-72000000D02*
X98000000Y-72000000D01*
X98000000Y-72000000D02*
X83000000Y-72000000D01*
X79000000Y-83500000D02*
X86500000Y-91000000D01*
X79000000Y-76000000D02*
X79000000Y-83500000D01*
X83000000Y-72000000D02*
X81000000Y-74000000D01*
X81000000Y-74000000D02*
X79000000Y-76000000D01*
X86500000Y-91000000D02*
X86500000Y-91500000D01*
D26*
X104000000Y-76000000D02*
X104000000Y-72000000D01*
D29*
X104000000Y-76000000D02*
X105000000Y-76000000D01*
D28*
X111000000Y-76000000D02*
X111000000Y-72000000D01*
X119000000Y-72000000D02*
X119000000Y-76000000D01*
D29*
X103000000Y-76000000D02*
X104000000Y-76000000D01*
X111000000Y-76000000D02*
X111000000Y-77520142D01*
X111000000Y-77520142D02*
X112000000Y-78520142D01*
X112000000Y-78520142D02*
X112000000Y-80000000D01*
D23*
X104000000Y-98160000D02*
X104000000Y-102000000D01*
X130000000Y-98160000D02*
X130000000Y-102000000D01*
D24*
X142000000Y-106000000D02*
X145000000Y-106000000D01*
D30*
X133500000Y-99000000D02*
X139000000Y-104500000D01*
X139000000Y-104500000D02*
X140500000Y-106000000D01*
X133500000Y-97000000D02*
X128500000Y-92000000D01*
X108000000Y-88000000D02*
X112000000Y-92000000D01*
X112000000Y-92000000D02*
X128500000Y-92000000D01*
X133500000Y-99000000D02*
X133500000Y-97000000D01*
X140500000Y-106000000D02*
X145000000Y-106000000D01*
D24*
X145000000Y-106000000D02*
X148000000Y-106000000D01*
D27*
X108000000Y-87840000D02*
X108000000Y-88000000D01*
D28*
X108000000Y-80000000D02*
X108000000Y-87840000D01*
D27*
X108000000Y-87840000D02*
X107840000Y-88000000D01*
X107840000Y-88000000D02*
X104000000Y-88000000D01*
D30*
X140500000Y-100000000D02*
X145000000Y-100000000D01*
X137500000Y-97000000D02*
X138500000Y-98000000D01*
X138500000Y-98000000D02*
X140500000Y-100000000D01*
X130000000Y-88000000D02*
X130500000Y-88000000D01*
X130500000Y-88000000D02*
X137500000Y-95000000D01*
X137500000Y-95000000D02*
X137500000Y-97000000D01*
D24*
X142000000Y-100000000D02*
X145000000Y-100000000D01*
X145000000Y-100000000D02*
X148000000Y-100000000D01*
D28*
X126000000Y-80000000D02*
X126000000Y-87840000D01*
D27*
X126000000Y-87840000D02*
X126160000Y-88000000D01*
D30*
X126160000Y-88000000D02*
X130000000Y-88000000D01*
D23*
X136000000Y-74000000D02*
X132000000Y-74000000D01*
X123000000Y-73000000D02*
X124000000Y-72000000D01*
X123000000Y-73000000D02*
X123000000Y-76000000D01*
X130000000Y-72000000D02*
X124000000Y-72000000D01*
X132000000Y-74000000D02*
X130000000Y-72000000D01*
X117000000Y-88000000D02*
X117000000Y-87000000D01*
X117000000Y-87000000D02*
X116000000Y-86000000D01*
X108000000Y-98000000D02*
X108000000Y-94000000D01*
X116000000Y-86000000D02*
X116000000Y-80000000D01*
X114000000Y-88000000D02*
X116000000Y-86000000D01*
X133000000Y-84620000D02*
X133000000Y-85500000D01*
X133000000Y-86500000D02*
X133000000Y-85500000D01*
X126000000Y-98000000D02*
X126000000Y-96000000D01*
X120000000Y-88000000D02*
X122000000Y-86000000D01*
X122000000Y-86000000D02*
X122000000Y-80000000D01*
X115500000Y-69000000D02*
X116000000Y-69500000D01*
X116000000Y-69500000D02*
X116000000Y-72500000D01*
X115000000Y-73500000D02*
X116000000Y-72500000D01*
X95500000Y-69000000D02*
X109000000Y-69000000D01*
X109000000Y-69000000D02*
X115500000Y-69000000D01*
X85000000Y-98500000D02*
X84000000Y-99500000D01*
X84000000Y-99500000D02*
X83500000Y-99500000D01*
X115000000Y-76000000D02*
X115000000Y-73500000D01*
X121000000Y-73500000D02*
X121000000Y-76000000D01*
X128000000Y-99000000D02*
X128000000Y-95500000D01*
X128000000Y-95500000D02*
X127500000Y-95000000D01*
X125000000Y-102000000D02*
X128000000Y-99000000D01*
X141000000Y-74000000D02*
X143620000Y-74000000D01*
X113000000Y-72000000D02*
X115000000Y-70000000D01*
X113000000Y-72000000D02*
X113000000Y-76000000D01*
X142000000Y-86000000D02*
X143620000Y-86000000D01*
X127500000Y-101500000D02*
X129000000Y-100000000D01*
X122500000Y-101000000D02*
X123500000Y-100000000D01*
X118500000Y-101000000D02*
X117000000Y-101000000D01*
X118500000Y-101000000D02*
X122500000Y-101000000D01*
X127000000Y-101500000D02*
X127500000Y-101500000D01*
X147000000Y-83000000D02*
X147000000Y-84620000D01*
X120000000Y-86000000D02*
X120000000Y-80000000D01*
X120000000Y-86000000D02*
X119000000Y-87000000D01*
X109000000Y-102000000D02*
X115000000Y-102000000D01*
X115000000Y-102000000D02*
X115500000Y-102500000D01*
X115500000Y-102500000D02*
X118500000Y-102500000D01*
X118500000Y-102500000D02*
X119000000Y-102000000D01*
X119000000Y-102000000D02*
X125000000Y-102000000D01*
X143620000Y-86000000D02*
X143620000Y-85880000D01*
X146000000Y-88380000D02*
X146000000Y-89500000D01*
X146000000Y-89500000D02*
X146000000Y-88380000D01*
D24*
X145000000Y-89500000D02*
X148000000Y-89500000D01*
X144000000Y-89500000D02*
X147000000Y-89500000D01*
D23*
X143620000Y-73620000D02*
X143620000Y-74000000D01*
M02*
