G04 #@! TF.FileFunction,Soldermask,Bot*
%FSLAX46Y46*%
G04 Gerber Fmt 4.6, Leading zero omitted, Abs format (unit mm)*
G04 Created by KiCad (PCBNEW 4.0.6) date 07/11/17 15:01:39*
%MOMM*%
%LPD*%
G01*
G04 APERTURE LIST*
%ADD10C,0.100000*%
%ADD11R,6.400000X3.400000*%
%ADD12R,2.000000X2.000000*%
%ADD13C,2.000000*%
%ADD14R,2.800000X2.800000*%
%ADD15C,2.800000*%
%ADD16R,8.400000X3.900000*%
%ADD17R,8.400000X3.400000*%
%ADD18C,1.800000*%
%ADD19O,1.800000X1.800000*%
%ADD20O,2.000000X2.000000*%
%ADD21O,1.924000X3.900000*%
G04 APERTURE END LIST*
D10*
D11*
X146000000Y-94500000D03*
D12*
X117000000Y-99000000D03*
D13*
X117000000Y-101000000D03*
X137000000Y-83000000D03*
X137000000Y-78000000D03*
X143000000Y-78000000D03*
X143000000Y-83000000D03*
X98000000Y-80000000D03*
X93000000Y-80000000D03*
X98000000Y-76000000D03*
X93000000Y-76000000D03*
D12*
X89000000Y-79000000D03*
D13*
X89000000Y-77000000D03*
D14*
X94000000Y-108000000D03*
D15*
X86500000Y-108000000D03*
D13*
X104000000Y-102000000D03*
X109000000Y-102000000D03*
X130000000Y-102000000D03*
X125000000Y-102000000D03*
D16*
X127000000Y-114000000D03*
D17*
X145000000Y-106000000D03*
X145000000Y-100000000D03*
D18*
X136000000Y-74000000D03*
D19*
X143620000Y-74000000D03*
D13*
X108000000Y-98000000D03*
D20*
X108000000Y-87840000D03*
D13*
X126000000Y-98000000D03*
D20*
X126000000Y-87840000D03*
D18*
X117000000Y-88000000D03*
D19*
X117000000Y-95620000D03*
D18*
X133000000Y-77000000D03*
D19*
X133000000Y-84620000D03*
D18*
X147000000Y-77000000D03*
D19*
X147000000Y-84620000D03*
D13*
X104000000Y-88000000D03*
D20*
X104000000Y-98160000D03*
D13*
X130000000Y-88000000D03*
D20*
X130000000Y-98160000D03*
D21*
X115000000Y-76000000D03*
X117000000Y-76000000D03*
X102000000Y-80000000D03*
X103000000Y-76000000D03*
X104000000Y-80000000D03*
X105000000Y-76000000D03*
X106000000Y-80000000D03*
X107000000Y-76000000D03*
X108000000Y-80000000D03*
X109000000Y-76000000D03*
X110000000Y-80000000D03*
X111000000Y-76000000D03*
X112000000Y-80000000D03*
X113000000Y-76000000D03*
X114000000Y-80000000D03*
X116000000Y-80000000D03*
X118000000Y-80000000D03*
X119000000Y-76000000D03*
X120000000Y-80000000D03*
X121000000Y-76000000D03*
X122000000Y-80000000D03*
X123000000Y-76000000D03*
X124000000Y-80000000D03*
X125000000Y-76000000D03*
X126000000Y-80000000D03*
X127000000Y-76000000D03*
X128000000Y-80000000D03*
D16*
X139000000Y-114000000D03*
X115000000Y-114000000D03*
D12*
X83000000Y-79000000D03*
D13*
X83000000Y-77000000D03*
D14*
X94000000Y-91000000D03*
D15*
X86500000Y-91000000D03*
D18*
X83500000Y-99500000D03*
D19*
X78420000Y-99500000D03*
D18*
X136000000Y-86000000D03*
D19*
X143620000Y-86000000D03*
D11*
X146000000Y-89500000D03*
M02*
