G04 #@! TF.FileFunction,Legend,Top*
%FSLAX46Y46*%
G04 Gerber Fmt 4.6, Leading zero omitted, Abs format (unit mm)*
G04 Created by KiCad (PCBNEW 4.0.6) date 07/11/17 15:01:39*
%MOMM*%
%LPD*%
G01*
G04 APERTURE LIST*
%ADD10C,0.100000*%
%ADD11C,0.200000*%
%ADD12C,0.150000*%
%ADD13C,0.120000*%
G04 APERTURE END LIST*
D10*
D11*
X139000000Y-92000000D02*
X142000000Y-92000000D01*
X134000000Y-93500000D02*
X134000000Y-93000000D01*
X136000000Y-95500000D02*
X134000000Y-93500000D01*
X142000000Y-95500000D02*
X136000000Y-95500000D01*
X134000000Y-90500000D02*
X134000000Y-91000000D01*
X136000000Y-88500000D02*
X134000000Y-90500000D01*
X142000000Y-88500000D02*
X136000000Y-88500000D01*
D10*
X133063691Y-92242857D02*
X133202976Y-92271429D01*
X133441072Y-92271429D01*
X133539882Y-92242857D01*
X133591072Y-92214286D01*
X133645834Y-92157143D01*
X133652977Y-92100000D01*
X133612501Y-92042857D01*
X133568453Y-92014286D01*
X133476787Y-91985714D01*
X133289881Y-91957143D01*
X133198215Y-91928571D01*
X133154167Y-91900000D01*
X133113691Y-91842857D01*
X133120834Y-91785714D01*
X133175596Y-91728571D01*
X133226786Y-91700000D01*
X133325595Y-91671429D01*
X133563691Y-91671429D01*
X133702977Y-91700000D01*
X134060119Y-92271429D02*
X134135119Y-91671429D01*
X135131548Y-91700000D02*
X135039881Y-91671429D01*
X134897024Y-91671429D01*
X134750595Y-91700000D01*
X134648214Y-91757143D01*
X134593452Y-91814286D01*
X134531548Y-91928571D01*
X134520833Y-92014286D01*
X134554167Y-92128571D01*
X134594643Y-92185714D01*
X134682738Y-92242857D01*
X134822024Y-92271429D01*
X134917262Y-92271429D01*
X135063691Y-92242857D01*
X135114881Y-92214286D01*
X135139881Y-92014286D01*
X134949405Y-92014286D01*
X135536309Y-92271429D02*
X135611309Y-91671429D01*
X136107738Y-92271429D01*
X136182738Y-91671429D01*
X136557738Y-92100000D02*
X137033929Y-92100000D01*
X136441071Y-92271429D02*
X136849404Y-91671429D01*
X137107738Y-92271429D01*
X137917262Y-92271429D02*
X137441071Y-92271429D01*
X137516071Y-91671429D01*
X101095238Y-112552381D02*
X101095238Y-111552381D01*
X101428572Y-112266667D01*
X101761905Y-111552381D01*
X101761905Y-112552381D01*
X102428571Y-111552381D02*
X102619048Y-111552381D01*
X102714286Y-111600000D01*
X102809524Y-111695238D01*
X102857143Y-111885714D01*
X102857143Y-112219048D01*
X102809524Y-112409524D01*
X102714286Y-112504762D01*
X102619048Y-112552381D01*
X102428571Y-112552381D01*
X102333333Y-112504762D01*
X102238095Y-112409524D01*
X102190476Y-112219048D01*
X102190476Y-111885714D01*
X102238095Y-111695238D01*
X102333333Y-111600000D01*
X102428571Y-111552381D01*
X103285714Y-112552381D02*
X103285714Y-111552381D01*
X103857143Y-112552381D01*
X103857143Y-111552381D01*
X104523809Y-111552381D02*
X104714286Y-111552381D01*
X104809524Y-111600000D01*
X104904762Y-111695238D01*
X104952381Y-111885714D01*
X104952381Y-112219048D01*
X104904762Y-112409524D01*
X104809524Y-112504762D01*
X104714286Y-112552381D01*
X104523809Y-112552381D01*
X104428571Y-112504762D01*
X104333333Y-112409524D01*
X104285714Y-112219048D01*
X104285714Y-111885714D01*
X104333333Y-111695238D01*
X104428571Y-111600000D01*
X104523809Y-111552381D01*
X100142857Y-113580952D02*
X100047619Y-113533333D01*
X100000000Y-113485714D01*
X99952381Y-113390476D01*
X99952381Y-113342857D01*
X100000000Y-113247619D01*
X100047619Y-113200000D01*
X100142857Y-113152381D01*
X100333334Y-113152381D01*
X100428572Y-113200000D01*
X100476191Y-113247619D01*
X100523810Y-113342857D01*
X100523810Y-113390476D01*
X100476191Y-113485714D01*
X100428572Y-113533333D01*
X100333334Y-113580952D01*
X100142857Y-113580952D01*
X100047619Y-113628571D01*
X100000000Y-113676190D01*
X99952381Y-113771429D01*
X99952381Y-113961905D01*
X100000000Y-114057143D01*
X100047619Y-114104762D01*
X100142857Y-114152381D01*
X100333334Y-114152381D01*
X100428572Y-114104762D01*
X100476191Y-114057143D01*
X100523810Y-113961905D01*
X100523810Y-113771429D01*
X100476191Y-113676190D01*
X100428572Y-113628571D01*
X100333334Y-113580952D01*
X101523810Y-114152381D02*
X101190476Y-113676190D01*
X100952381Y-114152381D02*
X100952381Y-113152381D01*
X101333334Y-113152381D01*
X101428572Y-113200000D01*
X101476191Y-113247619D01*
X101523810Y-113342857D01*
X101523810Y-113485714D01*
X101476191Y-113580952D01*
X101428572Y-113628571D01*
X101333334Y-113676190D01*
X100952381Y-113676190D01*
X102904762Y-113152381D02*
X103095239Y-113152381D01*
X103190477Y-113200000D01*
X103285715Y-113295238D01*
X103333334Y-113485714D01*
X103333334Y-113819048D01*
X103285715Y-114009524D01*
X103190477Y-114104762D01*
X103095239Y-114152381D01*
X102904762Y-114152381D01*
X102809524Y-114104762D01*
X102714286Y-114009524D01*
X102666667Y-113819048D01*
X102666667Y-113485714D01*
X102714286Y-113295238D01*
X102809524Y-113200000D01*
X102904762Y-113152381D01*
X103761905Y-114152381D02*
X103761905Y-113152381D01*
X104333334Y-114152381D01*
X104333334Y-113152381D01*
X105285715Y-114152381D02*
X104809524Y-114152381D01*
X104809524Y-113152381D01*
X105809524Y-113676190D02*
X105809524Y-114152381D01*
X105476191Y-113152381D02*
X105809524Y-113676190D01*
X106142858Y-113152381D01*
X99833334Y-115752381D02*
X99261905Y-115752381D01*
X99547619Y-115752381D02*
X99547619Y-114752381D01*
X99452381Y-114895238D01*
X99357143Y-114990476D01*
X99261905Y-115038095D01*
X100214286Y-114847619D02*
X100261905Y-114800000D01*
X100357143Y-114752381D01*
X100595239Y-114752381D01*
X100690477Y-114800000D01*
X100738096Y-114847619D01*
X100785715Y-114942857D01*
X100785715Y-115038095D01*
X100738096Y-115180952D01*
X100166667Y-115752381D01*
X100785715Y-115752381D01*
X101404762Y-114752381D02*
X101500001Y-114752381D01*
X101595239Y-114800000D01*
X101642858Y-114847619D01*
X101690477Y-114942857D01*
X101738096Y-115133333D01*
X101738096Y-115371429D01*
X101690477Y-115561905D01*
X101642858Y-115657143D01*
X101595239Y-115704762D01*
X101500001Y-115752381D01*
X101404762Y-115752381D01*
X101309524Y-115704762D01*
X101261905Y-115657143D01*
X101214286Y-115561905D01*
X101166667Y-115371429D01*
X101166667Y-115133333D01*
X101214286Y-114942857D01*
X101261905Y-114847619D01*
X101309524Y-114800000D01*
X101404762Y-114752381D01*
X102071429Y-114752381D02*
X102309524Y-115752381D01*
X102500001Y-115038095D01*
X102690477Y-115752381D01*
X102928572Y-114752381D01*
X104642858Y-115752381D02*
X104309524Y-115276190D01*
X104071429Y-115752381D02*
X104071429Y-114752381D01*
X104452382Y-114752381D01*
X104547620Y-114800000D01*
X104595239Y-114847619D01*
X104642858Y-114942857D01*
X104642858Y-115085714D01*
X104595239Y-115180952D01*
X104547620Y-115228571D01*
X104452382Y-115276190D01*
X104071429Y-115276190D01*
X105071429Y-115752381D02*
X105071429Y-114752381D01*
X105404763Y-115466667D01*
X105738096Y-114752381D01*
X105738096Y-115752381D01*
X106166667Y-115704762D02*
X106309524Y-115752381D01*
X106547620Y-115752381D01*
X106642858Y-115704762D01*
X106690477Y-115657143D01*
X106738096Y-115561905D01*
X106738096Y-115466667D01*
X106690477Y-115371429D01*
X106642858Y-115323810D01*
X106547620Y-115276190D01*
X106357143Y-115228571D01*
X106261905Y-115180952D01*
X106214286Y-115133333D01*
X106166667Y-115038095D01*
X106166667Y-114942857D01*
X106214286Y-114847619D01*
X106261905Y-114800000D01*
X106357143Y-114752381D01*
X106595239Y-114752381D01*
X106738096Y-114800000D01*
X99404762Y-116352381D02*
X99500001Y-116352381D01*
X99595239Y-116400000D01*
X99642858Y-116447619D01*
X99690477Y-116542857D01*
X99738096Y-116733333D01*
X99738096Y-116971429D01*
X99690477Y-117161905D01*
X99642858Y-117257143D01*
X99595239Y-117304762D01*
X99500001Y-117352381D01*
X99404762Y-117352381D01*
X99309524Y-117304762D01*
X99261905Y-117257143D01*
X99214286Y-117161905D01*
X99166667Y-116971429D01*
X99166667Y-116733333D01*
X99214286Y-116542857D01*
X99261905Y-116447619D01*
X99309524Y-116400000D01*
X99404762Y-116352381D01*
X100166667Y-117257143D02*
X100214286Y-117304762D01*
X100166667Y-117352381D01*
X100119048Y-117304762D01*
X100166667Y-117257143D01*
X100166667Y-117352381D01*
X100833333Y-116352381D02*
X100928572Y-116352381D01*
X101023810Y-116400000D01*
X101071429Y-116447619D01*
X101119048Y-116542857D01*
X101166667Y-116733333D01*
X101166667Y-116971429D01*
X101119048Y-117161905D01*
X101071429Y-117257143D01*
X101023810Y-117304762D01*
X100928572Y-117352381D01*
X100833333Y-117352381D01*
X100738095Y-117304762D01*
X100690476Y-117257143D01*
X100642857Y-117161905D01*
X100595238Y-116971429D01*
X100595238Y-116733333D01*
X100642857Y-116542857D01*
X100690476Y-116447619D01*
X100738095Y-116400000D01*
X100833333Y-116352381D01*
X101500000Y-116352381D02*
X102119048Y-116352381D01*
X101785714Y-116733333D01*
X101928572Y-116733333D01*
X102023810Y-116780952D01*
X102071429Y-116828571D01*
X102119048Y-116923810D01*
X102119048Y-117161905D01*
X102071429Y-117257143D01*
X102023810Y-117304762D01*
X101928572Y-117352381D01*
X101642857Y-117352381D01*
X101547619Y-117304762D01*
X101500000Y-117257143D01*
X102500000Y-117352381D02*
X103261905Y-116352381D01*
X102642857Y-116352381D02*
X102738095Y-116400000D01*
X102785714Y-116495238D01*
X102738095Y-116590476D01*
X102642857Y-116638095D01*
X102547619Y-116590476D01*
X102500000Y-116495238D01*
X102547619Y-116400000D01*
X102642857Y-116352381D01*
X103214286Y-117304762D02*
X103261905Y-117209524D01*
X103214286Y-117114286D01*
X103119048Y-117066667D01*
X103023810Y-117114286D01*
X102976191Y-117209524D01*
X103023810Y-117304762D01*
X103119048Y-117352381D01*
X103214286Y-117304762D01*
X104309524Y-116352381D02*
X104880953Y-116352381D01*
X104595238Y-117352381D02*
X104595238Y-116352381D01*
X105214286Y-117352381D02*
X105214286Y-116352381D01*
X105214286Y-116828571D02*
X105785715Y-116828571D01*
X105785715Y-117352381D02*
X105785715Y-116352381D01*
X106261905Y-117352381D02*
X106261905Y-116352381D01*
X106500000Y-116352381D01*
X106642858Y-116400000D01*
X106738096Y-116495238D01*
X106785715Y-116590476D01*
X106833334Y-116780952D01*
X106833334Y-116923810D01*
X106785715Y-117114286D01*
X106738096Y-117209524D01*
X106642858Y-117304762D01*
X106500000Y-117352381D01*
X106261905Y-117352381D01*
D11*
X124651786Y-117500000D02*
X124372024Y-117452381D01*
X123943453Y-117452381D01*
X123508929Y-117500000D01*
X123211310Y-117595238D01*
X123056549Y-117690476D01*
X122889882Y-117880952D01*
X122872025Y-118023810D01*
X122991072Y-118214286D01*
X123122025Y-118309524D01*
X123395834Y-118404762D01*
X123818453Y-118452381D01*
X124104167Y-118452381D01*
X124538691Y-118404762D01*
X124687500Y-118357143D01*
X124729167Y-118023810D01*
X124157739Y-118023810D01*
X125961310Y-118452381D02*
X126086310Y-117452381D01*
X127675595Y-118452381D01*
X127800595Y-117452381D01*
X129104167Y-118452381D02*
X129229167Y-117452381D01*
X129943452Y-117452381D01*
X130366072Y-117500000D01*
X130639881Y-117595238D01*
X130770834Y-117690476D01*
X130889881Y-117880952D01*
X130872024Y-118023810D01*
X130705357Y-118214286D01*
X130550596Y-118309524D01*
X130252977Y-118404762D01*
X129818452Y-118452381D01*
X129104167Y-118452381D01*
X134866071Y-118071429D02*
X137151785Y-118071429D01*
X135961309Y-118452381D02*
X136056548Y-117690476D01*
X139901786Y-117785714D02*
X139818452Y-118452381D01*
X139235119Y-117404762D02*
X138431548Y-118119048D01*
X140288690Y-118119048D01*
X142086309Y-117452381D02*
X142372024Y-117452381D01*
X142651786Y-117500000D01*
X142788691Y-117547619D01*
X142919643Y-117642857D01*
X143038690Y-117833333D01*
X143008928Y-118071429D01*
X142842262Y-118261905D01*
X142687500Y-118357143D01*
X142538691Y-118404762D01*
X142247024Y-118452381D01*
X141961309Y-118452381D01*
X141681548Y-118404762D01*
X141544643Y-118357143D01*
X141413691Y-118261905D01*
X141294643Y-118071429D01*
X141324405Y-117833333D01*
X141491072Y-117642857D01*
X141645834Y-117547619D01*
X141794643Y-117500000D01*
X142086309Y-117452381D01*
X109866071Y-118071429D02*
X112151785Y-118071429D01*
X114901786Y-117785714D02*
X114818452Y-118452381D01*
X114235119Y-117404762D02*
X113431548Y-118119048D01*
X115288690Y-118119048D01*
X117086309Y-117452381D02*
X117372024Y-117452381D01*
X117651786Y-117500000D01*
X117788691Y-117547619D01*
X117919643Y-117642857D01*
X118038690Y-117833333D01*
X118008928Y-118071429D01*
X117842262Y-118261905D01*
X117687500Y-118357143D01*
X117538691Y-118404762D01*
X117247024Y-118452381D01*
X116961309Y-118452381D01*
X116681548Y-118404762D01*
X116544643Y-118357143D01*
X116413691Y-118261905D01*
X116294643Y-118071429D01*
X116324405Y-117833333D01*
X116491072Y-117642857D01*
X116645834Y-117547619D01*
X116794643Y-117500000D01*
X117086309Y-117452381D01*
D12*
X104034227Y-107892857D02*
X104382441Y-107964286D01*
X104492561Y-108035714D01*
X104593752Y-108178571D01*
X104566966Y-108392857D01*
X104430061Y-108535714D01*
X104302084Y-108607143D01*
X104055061Y-108678571D01*
X103102680Y-108678571D01*
X103290180Y-107178571D01*
X104123513Y-107178571D01*
X104352680Y-107250000D01*
X104462798Y-107321429D01*
X104563989Y-107464286D01*
X104546132Y-107607143D01*
X104409227Y-107750000D01*
X104281251Y-107821429D01*
X104034227Y-107892857D01*
X103200894Y-107892857D01*
X105620537Y-108535714D02*
X105730656Y-108607143D01*
X105602680Y-108678571D01*
X105492560Y-108607143D01*
X105620537Y-108535714D01*
X105602680Y-108678571D01*
X107724703Y-107892857D02*
X108072917Y-107964286D01*
X108183037Y-108035714D01*
X108284228Y-108178571D01*
X108257442Y-108392857D01*
X108120537Y-108535714D01*
X107992560Y-108607143D01*
X107745537Y-108678571D01*
X106793156Y-108678571D01*
X106980656Y-107178571D01*
X107813989Y-107178571D01*
X108043156Y-107250000D01*
X108153274Y-107321429D01*
X108254465Y-107464286D01*
X108236608Y-107607143D01*
X108099703Y-107750000D01*
X107971727Y-107821429D01*
X107724703Y-107892857D01*
X106891370Y-107892857D01*
X109311013Y-108535714D02*
X109421132Y-108607143D01*
X109293156Y-108678571D01*
X109183036Y-108607143D01*
X109311013Y-108535714D01*
X109293156Y-108678571D01*
X112459822Y-108107143D02*
X114364584Y-108107143D01*
X118578870Y-108678571D02*
X117388394Y-108678571D01*
X117575894Y-107178571D01*
X119412204Y-108678571D02*
X119599704Y-107178571D01*
X120299108Y-108250000D01*
X121266371Y-107178571D01*
X121078871Y-108678571D01*
X123465776Y-107678571D02*
X123340776Y-108678571D01*
X122941966Y-107107143D02*
X122212799Y-108178571D01*
X123760419Y-108178571D01*
X124599704Y-107178571D02*
X126266371Y-107178571D01*
X125007442Y-108678571D01*
X127495536Y-107821429D02*
X127266370Y-107750000D01*
X127156251Y-107678571D01*
X127055060Y-107535714D01*
X127063988Y-107464286D01*
X127200893Y-107321429D01*
X127328870Y-107250000D01*
X127575894Y-107178571D01*
X128052084Y-107178571D01*
X128281251Y-107250000D01*
X128391369Y-107321429D01*
X128492560Y-107464286D01*
X128483632Y-107535714D01*
X128346727Y-107678571D01*
X128218751Y-107750000D01*
X127971726Y-107821429D01*
X127495536Y-107821429D01*
X127248513Y-107892857D01*
X127120536Y-107964286D01*
X126983631Y-108107143D01*
X126947917Y-108392857D01*
X127049108Y-108535714D01*
X127159227Y-108607143D01*
X127388394Y-108678571D01*
X127864584Y-108678571D01*
X128111608Y-108607143D01*
X128239584Y-108535714D01*
X128376489Y-108392857D01*
X128412203Y-108107143D01*
X128311012Y-107964286D01*
X128200894Y-107892857D01*
X127971726Y-107821429D01*
X130075894Y-107178571D02*
X130313989Y-107178571D01*
X130543155Y-107250000D01*
X130653274Y-107321429D01*
X130754464Y-107464286D01*
X130837798Y-107750000D01*
X130793155Y-108107143D01*
X130638393Y-108392857D01*
X130501489Y-108535714D01*
X130373512Y-108607143D01*
X130126489Y-108678571D01*
X129888394Y-108678571D01*
X129659226Y-108607143D01*
X129549108Y-108535714D01*
X129447917Y-108392857D01*
X129364583Y-108107143D01*
X129409226Y-107750000D01*
X129563988Y-107464286D01*
X129700893Y-107321429D01*
X129828869Y-107250000D01*
X130075894Y-107178571D01*
D11*
X120000000Y-104000000D02*
X122000000Y-104000000D01*
X119000000Y-103000000D02*
X122000000Y-103000000D01*
X120000000Y-102000000D02*
X122000000Y-102000000D01*
X121000000Y-100000000D02*
X123000000Y-100000000D01*
X122000000Y-99000000D02*
X123000000Y-99000000D01*
X120000000Y-98000000D02*
X122000000Y-98000000D01*
X121000000Y-97000000D02*
X119000000Y-97000000D01*
X120000000Y-96000000D02*
X122000000Y-96000000D01*
X121000000Y-95000000D02*
X123000000Y-95000000D01*
X119000000Y-94000000D02*
X122000000Y-94000000D01*
X120000000Y-93000000D02*
X122000000Y-93000000D01*
X119000000Y-91000000D02*
X120000000Y-91000000D01*
X121000000Y-90000000D02*
X123000000Y-90000000D01*
X120000000Y-89000000D02*
X122000000Y-89000000D01*
X120000000Y-88000000D02*
X121000000Y-88000000D01*
X119000000Y-86000000D02*
X120000000Y-86000000D01*
X114000000Y-86000000D02*
X115000000Y-86000000D01*
X113000000Y-88000000D02*
X114000000Y-88000000D01*
X112000000Y-89000000D02*
X114000000Y-89000000D01*
X111000000Y-90000000D02*
X113000000Y-90000000D01*
X114000000Y-91000000D02*
X115000000Y-91000000D01*
X112000000Y-93000000D02*
X114000000Y-93000000D01*
X112000000Y-94000000D02*
X115000000Y-94000000D01*
X111000000Y-95000000D02*
X113000000Y-95000000D01*
X114000000Y-96000000D02*
X112000000Y-96000000D01*
X113000000Y-97000000D02*
X115000000Y-97000000D01*
X112000000Y-98000000D02*
X114000000Y-98000000D01*
X111000000Y-99000000D02*
X112000000Y-99000000D01*
X111000000Y-100000000D02*
X113000000Y-100000000D01*
X114000000Y-102000000D02*
X112000000Y-102000000D01*
X112000000Y-103000000D02*
X115000000Y-103000000D01*
X112000000Y-104000000D02*
X114000000Y-104000000D01*
D13*
X144670000Y-95770000D02*
X144670000Y-95830000D01*
X144670000Y-95830000D02*
X147330000Y-95830000D01*
X147330000Y-95830000D02*
X147330000Y-95770000D01*
X147330000Y-95770000D02*
X144670000Y-95770000D01*
X144670000Y-94500000D02*
X144670000Y-93170000D01*
X144670000Y-93170000D02*
X146000000Y-93170000D01*
X119550000Y-100000000D02*
X114450000Y-100000000D01*
X119550000Y-100040000D02*
X117980000Y-100040000D01*
X116020000Y-100040000D02*
X114450000Y-100040000D01*
X119549000Y-100080000D02*
X117980000Y-100080000D01*
X116020000Y-100080000D02*
X114451000Y-100080000D01*
X119548000Y-100120000D02*
X117980000Y-100120000D01*
X116020000Y-100120000D02*
X114452000Y-100120000D01*
X119546000Y-100160000D02*
X117980000Y-100160000D01*
X116020000Y-100160000D02*
X114454000Y-100160000D01*
X119543000Y-100200000D02*
X117980000Y-100200000D01*
X116020000Y-100200000D02*
X114457000Y-100200000D01*
X119539000Y-100240000D02*
X117980000Y-100240000D01*
X116020000Y-100240000D02*
X114461000Y-100240000D01*
X119535000Y-100280000D02*
X117980000Y-100280000D01*
X116020000Y-100280000D02*
X114465000Y-100280000D01*
X119531000Y-100320000D02*
X117980000Y-100320000D01*
X116020000Y-100320000D02*
X114469000Y-100320000D01*
X119525000Y-100360000D02*
X117980000Y-100360000D01*
X116020000Y-100360000D02*
X114475000Y-100360000D01*
X119519000Y-100400000D02*
X117980000Y-100400000D01*
X116020000Y-100400000D02*
X114481000Y-100400000D01*
X119513000Y-100440000D02*
X117980000Y-100440000D01*
X116020000Y-100440000D02*
X114487000Y-100440000D01*
X119506000Y-100480000D02*
X117980000Y-100480000D01*
X116020000Y-100480000D02*
X114494000Y-100480000D01*
X119498000Y-100520000D02*
X117980000Y-100520000D01*
X116020000Y-100520000D02*
X114502000Y-100520000D01*
X119489000Y-100560000D02*
X117980000Y-100560000D01*
X116020000Y-100560000D02*
X114511000Y-100560000D01*
X119480000Y-100600000D02*
X117980000Y-100600000D01*
X116020000Y-100600000D02*
X114520000Y-100600000D01*
X119470000Y-100640000D02*
X117980000Y-100640000D01*
X116020000Y-100640000D02*
X114530000Y-100640000D01*
X119460000Y-100680000D02*
X117980000Y-100680000D01*
X116020000Y-100680000D02*
X114540000Y-100680000D01*
X119448000Y-100721000D02*
X117980000Y-100721000D01*
X116020000Y-100721000D02*
X114552000Y-100721000D01*
X119436000Y-100761000D02*
X117980000Y-100761000D01*
X116020000Y-100761000D02*
X114564000Y-100761000D01*
X119424000Y-100801000D02*
X117980000Y-100801000D01*
X116020000Y-100801000D02*
X114576000Y-100801000D01*
X119410000Y-100841000D02*
X117980000Y-100841000D01*
X116020000Y-100841000D02*
X114590000Y-100841000D01*
X119396000Y-100881000D02*
X117980000Y-100881000D01*
X116020000Y-100881000D02*
X114604000Y-100881000D01*
X119382000Y-100921000D02*
X117980000Y-100921000D01*
X116020000Y-100921000D02*
X114618000Y-100921000D01*
X119366000Y-100961000D02*
X117980000Y-100961000D01*
X116020000Y-100961000D02*
X114634000Y-100961000D01*
X119350000Y-101001000D02*
X117980000Y-101001000D01*
X116020000Y-101001000D02*
X114650000Y-101001000D01*
X119333000Y-101041000D02*
X117980000Y-101041000D01*
X116020000Y-101041000D02*
X114667000Y-101041000D01*
X119315000Y-101081000D02*
X117980000Y-101081000D01*
X116020000Y-101081000D02*
X114685000Y-101081000D01*
X119296000Y-101121000D02*
X117980000Y-101121000D01*
X116020000Y-101121000D02*
X114704000Y-101121000D01*
X119276000Y-101161000D02*
X117980000Y-101161000D01*
X116020000Y-101161000D02*
X114724000Y-101161000D01*
X119256000Y-101201000D02*
X117980000Y-101201000D01*
X116020000Y-101201000D02*
X114744000Y-101201000D01*
X119234000Y-101241000D02*
X117980000Y-101241000D01*
X116020000Y-101241000D02*
X114766000Y-101241000D01*
X119212000Y-101281000D02*
X117980000Y-101281000D01*
X116020000Y-101281000D02*
X114788000Y-101281000D01*
X119189000Y-101321000D02*
X117980000Y-101321000D01*
X116020000Y-101321000D02*
X114811000Y-101321000D01*
X119165000Y-101361000D02*
X117980000Y-101361000D01*
X116020000Y-101361000D02*
X114835000Y-101361000D01*
X119140000Y-101401000D02*
X117980000Y-101401000D01*
X116020000Y-101401000D02*
X114860000Y-101401000D01*
X119113000Y-101441000D02*
X117980000Y-101441000D01*
X116020000Y-101441000D02*
X114887000Y-101441000D01*
X119086000Y-101481000D02*
X117980000Y-101481000D01*
X116020000Y-101481000D02*
X114914000Y-101481000D01*
X119058000Y-101521000D02*
X117980000Y-101521000D01*
X116020000Y-101521000D02*
X114942000Y-101521000D01*
X119028000Y-101561000D02*
X117980000Y-101561000D01*
X116020000Y-101561000D02*
X114972000Y-101561000D01*
X118997000Y-101601000D02*
X117980000Y-101601000D01*
X116020000Y-101601000D02*
X115003000Y-101601000D01*
X118965000Y-101641000D02*
X117980000Y-101641000D01*
X116020000Y-101641000D02*
X115035000Y-101641000D01*
X118932000Y-101681000D02*
X117980000Y-101681000D01*
X116020000Y-101681000D02*
X115068000Y-101681000D01*
X118897000Y-101721000D02*
X117980000Y-101721000D01*
X116020000Y-101721000D02*
X115103000Y-101721000D01*
X118861000Y-101761000D02*
X117980000Y-101761000D01*
X116020000Y-101761000D02*
X115139000Y-101761000D01*
X118823000Y-101801000D02*
X117980000Y-101801000D01*
X116020000Y-101801000D02*
X115177000Y-101801000D01*
X118783000Y-101841000D02*
X117980000Y-101841000D01*
X116020000Y-101841000D02*
X115217000Y-101841000D01*
X118742000Y-101881000D02*
X117980000Y-101881000D01*
X116020000Y-101881000D02*
X115258000Y-101881000D01*
X118699000Y-101921000D02*
X117980000Y-101921000D01*
X116020000Y-101921000D02*
X115301000Y-101921000D01*
X118654000Y-101961000D02*
X117980000Y-101961000D01*
X116020000Y-101961000D02*
X115346000Y-101961000D01*
X118606000Y-102001000D02*
X115394000Y-102001000D01*
X118556000Y-102041000D02*
X115444000Y-102041000D01*
X118504000Y-102081000D02*
X115496000Y-102081000D01*
X118448000Y-102121000D02*
X115552000Y-102121000D01*
X118390000Y-102161000D02*
X115610000Y-102161000D01*
X118327000Y-102201000D02*
X115673000Y-102201000D01*
X118261000Y-102241000D02*
X115739000Y-102241000D01*
X118189000Y-102281000D02*
X115811000Y-102281000D01*
X118112000Y-102321000D02*
X115888000Y-102321000D01*
X118028000Y-102361000D02*
X115972000Y-102361000D01*
X117934000Y-102401000D02*
X116066000Y-102401000D01*
X117829000Y-102441000D02*
X116171000Y-102441000D01*
X117707000Y-102481000D02*
X116293000Y-102481000D01*
X117559000Y-102521000D02*
X116441000Y-102521000D01*
X117354000Y-102561000D02*
X116646000Y-102561000D01*
X117000000Y-96800000D02*
X117000000Y-98000000D01*
X117650000Y-97400000D02*
X116350000Y-97400000D01*
X117981400Y-102396863D02*
G75*
G03X117980000Y-97602564I-981400J2396863D01*
G01*
X116018600Y-102396863D02*
G75*
G02X116020000Y-97602564I981400J2396863D01*
G01*
X116018600Y-102396863D02*
G75*
G03X117980000Y-102397436I981400J2396863D01*
G01*
X134690000Y-84060000D02*
X134690000Y-76940000D01*
X139310000Y-84060000D02*
X139310000Y-76940000D01*
X134690000Y-84060000D02*
X139310000Y-84060000D01*
X134690000Y-76940000D02*
X139310000Y-76940000D01*
X145310000Y-76940000D02*
X145310000Y-84060000D01*
X140690000Y-76940000D02*
X140690000Y-84060000D01*
X145310000Y-76940000D02*
X140690000Y-76940000D01*
X145310000Y-84060000D02*
X140690000Y-84060000D01*
X99060000Y-81310000D02*
X91940000Y-81310000D01*
X99060000Y-78690000D02*
X91940000Y-78690000D01*
X99060000Y-81310000D02*
X99060000Y-78690000D01*
X91940000Y-81310000D02*
X91940000Y-78690000D01*
X99060000Y-77310000D02*
X91940000Y-77310000D01*
X99060000Y-74690000D02*
X91940000Y-74690000D01*
X99060000Y-77310000D02*
X99060000Y-74690000D01*
X91940000Y-77310000D02*
X91940000Y-74690000D01*
X86450000Y-78000000D02*
X91550000Y-78000000D01*
X86450000Y-77960000D02*
X88020000Y-77960000D01*
X89980000Y-77960000D02*
X91550000Y-77960000D01*
X86451000Y-77920000D02*
X88020000Y-77920000D01*
X89980000Y-77920000D02*
X91549000Y-77920000D01*
X86452000Y-77880000D02*
X88020000Y-77880000D01*
X89980000Y-77880000D02*
X91548000Y-77880000D01*
X86454000Y-77840000D02*
X88020000Y-77840000D01*
X89980000Y-77840000D02*
X91546000Y-77840000D01*
X86457000Y-77800000D02*
X88020000Y-77800000D01*
X89980000Y-77800000D02*
X91543000Y-77800000D01*
X86461000Y-77760000D02*
X88020000Y-77760000D01*
X89980000Y-77760000D02*
X91539000Y-77760000D01*
X86465000Y-77720000D02*
X88020000Y-77720000D01*
X89980000Y-77720000D02*
X91535000Y-77720000D01*
X86469000Y-77680000D02*
X88020000Y-77680000D01*
X89980000Y-77680000D02*
X91531000Y-77680000D01*
X86475000Y-77640000D02*
X88020000Y-77640000D01*
X89980000Y-77640000D02*
X91525000Y-77640000D01*
X86481000Y-77600000D02*
X88020000Y-77600000D01*
X89980000Y-77600000D02*
X91519000Y-77600000D01*
X86487000Y-77560000D02*
X88020000Y-77560000D01*
X89980000Y-77560000D02*
X91513000Y-77560000D01*
X86494000Y-77520000D02*
X88020000Y-77520000D01*
X89980000Y-77520000D02*
X91506000Y-77520000D01*
X86502000Y-77480000D02*
X88020000Y-77480000D01*
X89980000Y-77480000D02*
X91498000Y-77480000D01*
X86511000Y-77440000D02*
X88020000Y-77440000D01*
X89980000Y-77440000D02*
X91489000Y-77440000D01*
X86520000Y-77400000D02*
X88020000Y-77400000D01*
X89980000Y-77400000D02*
X91480000Y-77400000D01*
X86530000Y-77360000D02*
X88020000Y-77360000D01*
X89980000Y-77360000D02*
X91470000Y-77360000D01*
X86540000Y-77320000D02*
X88020000Y-77320000D01*
X89980000Y-77320000D02*
X91460000Y-77320000D01*
X86552000Y-77279000D02*
X88020000Y-77279000D01*
X89980000Y-77279000D02*
X91448000Y-77279000D01*
X86564000Y-77239000D02*
X88020000Y-77239000D01*
X89980000Y-77239000D02*
X91436000Y-77239000D01*
X86576000Y-77199000D02*
X88020000Y-77199000D01*
X89980000Y-77199000D02*
X91424000Y-77199000D01*
X86590000Y-77159000D02*
X88020000Y-77159000D01*
X89980000Y-77159000D02*
X91410000Y-77159000D01*
X86604000Y-77119000D02*
X88020000Y-77119000D01*
X89980000Y-77119000D02*
X91396000Y-77119000D01*
X86618000Y-77079000D02*
X88020000Y-77079000D01*
X89980000Y-77079000D02*
X91382000Y-77079000D01*
X86634000Y-77039000D02*
X88020000Y-77039000D01*
X89980000Y-77039000D02*
X91366000Y-77039000D01*
X86650000Y-76999000D02*
X88020000Y-76999000D01*
X89980000Y-76999000D02*
X91350000Y-76999000D01*
X86667000Y-76959000D02*
X88020000Y-76959000D01*
X89980000Y-76959000D02*
X91333000Y-76959000D01*
X86685000Y-76919000D02*
X88020000Y-76919000D01*
X89980000Y-76919000D02*
X91315000Y-76919000D01*
X86704000Y-76879000D02*
X88020000Y-76879000D01*
X89980000Y-76879000D02*
X91296000Y-76879000D01*
X86724000Y-76839000D02*
X88020000Y-76839000D01*
X89980000Y-76839000D02*
X91276000Y-76839000D01*
X86744000Y-76799000D02*
X88020000Y-76799000D01*
X89980000Y-76799000D02*
X91256000Y-76799000D01*
X86766000Y-76759000D02*
X88020000Y-76759000D01*
X89980000Y-76759000D02*
X91234000Y-76759000D01*
X86788000Y-76719000D02*
X88020000Y-76719000D01*
X89980000Y-76719000D02*
X91212000Y-76719000D01*
X86811000Y-76679000D02*
X88020000Y-76679000D01*
X89980000Y-76679000D02*
X91189000Y-76679000D01*
X86835000Y-76639000D02*
X88020000Y-76639000D01*
X89980000Y-76639000D02*
X91165000Y-76639000D01*
X86860000Y-76599000D02*
X88020000Y-76599000D01*
X89980000Y-76599000D02*
X91140000Y-76599000D01*
X86887000Y-76559000D02*
X88020000Y-76559000D01*
X89980000Y-76559000D02*
X91113000Y-76559000D01*
X86914000Y-76519000D02*
X88020000Y-76519000D01*
X89980000Y-76519000D02*
X91086000Y-76519000D01*
X86942000Y-76479000D02*
X88020000Y-76479000D01*
X89980000Y-76479000D02*
X91058000Y-76479000D01*
X86972000Y-76439000D02*
X88020000Y-76439000D01*
X89980000Y-76439000D02*
X91028000Y-76439000D01*
X87003000Y-76399000D02*
X88020000Y-76399000D01*
X89980000Y-76399000D02*
X90997000Y-76399000D01*
X87035000Y-76359000D02*
X88020000Y-76359000D01*
X89980000Y-76359000D02*
X90965000Y-76359000D01*
X87068000Y-76319000D02*
X88020000Y-76319000D01*
X89980000Y-76319000D02*
X90932000Y-76319000D01*
X87103000Y-76279000D02*
X88020000Y-76279000D01*
X89980000Y-76279000D02*
X90897000Y-76279000D01*
X87139000Y-76239000D02*
X88020000Y-76239000D01*
X89980000Y-76239000D02*
X90861000Y-76239000D01*
X87177000Y-76199000D02*
X88020000Y-76199000D01*
X89980000Y-76199000D02*
X90823000Y-76199000D01*
X87217000Y-76159000D02*
X88020000Y-76159000D01*
X89980000Y-76159000D02*
X90783000Y-76159000D01*
X87258000Y-76119000D02*
X88020000Y-76119000D01*
X89980000Y-76119000D02*
X90742000Y-76119000D01*
X87301000Y-76079000D02*
X88020000Y-76079000D01*
X89980000Y-76079000D02*
X90699000Y-76079000D01*
X87346000Y-76039000D02*
X88020000Y-76039000D01*
X89980000Y-76039000D02*
X90654000Y-76039000D01*
X87394000Y-75999000D02*
X90606000Y-75999000D01*
X87444000Y-75959000D02*
X90556000Y-75959000D01*
X87496000Y-75919000D02*
X90504000Y-75919000D01*
X87552000Y-75879000D02*
X90448000Y-75879000D01*
X87610000Y-75839000D02*
X90390000Y-75839000D01*
X87673000Y-75799000D02*
X90327000Y-75799000D01*
X87739000Y-75759000D02*
X90261000Y-75759000D01*
X87811000Y-75719000D02*
X90189000Y-75719000D01*
X87888000Y-75679000D02*
X90112000Y-75679000D01*
X87972000Y-75639000D02*
X90028000Y-75639000D01*
X88066000Y-75599000D02*
X89934000Y-75599000D01*
X88171000Y-75559000D02*
X89829000Y-75559000D01*
X88293000Y-75519000D02*
X89707000Y-75519000D01*
X88441000Y-75479000D02*
X89559000Y-75479000D01*
X88646000Y-75439000D02*
X89354000Y-75439000D01*
X89000000Y-81200000D02*
X89000000Y-80000000D01*
X88350000Y-80600000D02*
X89650000Y-80600000D01*
X88018600Y-75603137D02*
G75*
G03X88020000Y-80397436I981400J-2396863D01*
G01*
X89981400Y-75603137D02*
G75*
G02X89980000Y-80397436I-981400J-2396863D01*
G01*
X89981400Y-75603137D02*
G75*
G03X88020000Y-75602564I-981400J-2396863D01*
G01*
X90250000Y-116051000D02*
X90250000Y-99949000D01*
X90210000Y-116050000D02*
X90210000Y-99950000D01*
X90170000Y-116050000D02*
X90170000Y-99950000D01*
X90130000Y-116050000D02*
X90130000Y-99950000D01*
X90090000Y-116049000D02*
X90090000Y-99951000D01*
X90050000Y-116048000D02*
X90050000Y-99952000D01*
X90010000Y-116047000D02*
X90010000Y-99953000D01*
X89970000Y-116046000D02*
X89970000Y-99954000D01*
X89930000Y-116044000D02*
X89930000Y-99956000D01*
X89890000Y-116042000D02*
X89890000Y-99958000D01*
X89850000Y-116041000D02*
X89850000Y-99959000D01*
X89810000Y-116039000D02*
X89810000Y-99961000D01*
X89770000Y-116036000D02*
X89770000Y-99964000D01*
X89730000Y-116034000D02*
X89730000Y-99966000D01*
X89690000Y-116031000D02*
X89690000Y-99969000D01*
X89650000Y-116028000D02*
X89650000Y-99972000D01*
X89610000Y-116025000D02*
X89610000Y-99975000D01*
X89570000Y-116022000D02*
X89570000Y-99978000D01*
X89529000Y-116018000D02*
X89529000Y-99982000D01*
X89489000Y-116015000D02*
X89489000Y-99985000D01*
X89449000Y-116011000D02*
X89449000Y-99989000D01*
X89409000Y-116007000D02*
X89409000Y-99993000D01*
X89369000Y-116002000D02*
X89369000Y-99998000D01*
X89329000Y-115998000D02*
X89329000Y-100002000D01*
X89289000Y-115993000D02*
X89289000Y-100007000D01*
X89249000Y-115988000D02*
X89249000Y-100012000D01*
X89209000Y-115983000D02*
X89209000Y-100017000D01*
X89169000Y-115978000D02*
X89169000Y-100022000D01*
X89129000Y-115973000D02*
X89129000Y-100027000D01*
X89089000Y-115967000D02*
X89089000Y-100033000D01*
X89049000Y-115961000D02*
X89049000Y-100039000D01*
X89009000Y-115955000D02*
X89009000Y-100045000D01*
X88969000Y-115949000D02*
X88969000Y-100051000D01*
X88929000Y-115942000D02*
X88929000Y-100058000D01*
X88889000Y-115935000D02*
X88889000Y-100065000D01*
X88849000Y-115928000D02*
X88849000Y-100072000D01*
X88809000Y-115921000D02*
X88809000Y-100079000D01*
X88769000Y-115914000D02*
X88769000Y-100086000D01*
X88729000Y-115906000D02*
X88729000Y-100094000D01*
X88689000Y-115899000D02*
X88689000Y-100101000D01*
X88649000Y-115891000D02*
X88649000Y-100109000D01*
X88609000Y-115883000D02*
X88609000Y-100117000D01*
X88569000Y-115874000D02*
X88569000Y-100126000D01*
X88529000Y-115866000D02*
X88529000Y-100134000D01*
X88489000Y-115857000D02*
X88489000Y-100143000D01*
X88449000Y-115848000D02*
X88449000Y-100152000D01*
X88409000Y-115838000D02*
X88409000Y-100162000D01*
X88369000Y-115829000D02*
X88369000Y-100171000D01*
X88329000Y-115819000D02*
X88329000Y-100181000D01*
X88289000Y-115809000D02*
X88289000Y-100191000D01*
X88249000Y-115799000D02*
X88249000Y-100201000D01*
X88209000Y-115789000D02*
X88209000Y-100211000D01*
X88169000Y-115779000D02*
X88169000Y-100221000D01*
X88129000Y-115768000D02*
X88129000Y-100232000D01*
X88089000Y-115757000D02*
X88089000Y-100243000D01*
X88049000Y-115746000D02*
X88049000Y-100254000D01*
X88009000Y-115734000D02*
X88009000Y-100266000D01*
X87969000Y-115723000D02*
X87969000Y-100277000D01*
X87929000Y-115711000D02*
X87929000Y-100289000D01*
X87889000Y-115699000D02*
X87889000Y-100301000D01*
X87849000Y-115686000D02*
X87849000Y-109380000D01*
X87849000Y-106620000D02*
X87849000Y-100314000D01*
X87809000Y-115674000D02*
X87809000Y-109380000D01*
X87809000Y-106620000D02*
X87809000Y-100326000D01*
X87769000Y-115661000D02*
X87769000Y-109380000D01*
X87769000Y-106620000D02*
X87769000Y-100339000D01*
X87729000Y-115648000D02*
X87729000Y-109380000D01*
X87729000Y-106620000D02*
X87729000Y-100352000D01*
X87689000Y-115635000D02*
X87689000Y-109380000D01*
X87689000Y-106620000D02*
X87689000Y-100365000D01*
X87649000Y-115621000D02*
X87649000Y-109380000D01*
X87649000Y-106620000D02*
X87649000Y-100379000D01*
X87609000Y-115608000D02*
X87609000Y-109380000D01*
X87609000Y-106620000D02*
X87609000Y-100392000D01*
X87569000Y-115594000D02*
X87569000Y-109380000D01*
X87569000Y-106620000D02*
X87569000Y-100406000D01*
X87529000Y-115580000D02*
X87529000Y-109380000D01*
X87529000Y-106620000D02*
X87529000Y-100420000D01*
X87489000Y-115565000D02*
X87489000Y-109380000D01*
X87489000Y-106620000D02*
X87489000Y-100435000D01*
X87449000Y-115550000D02*
X87449000Y-109380000D01*
X87449000Y-106620000D02*
X87449000Y-100450000D01*
X87409000Y-115536000D02*
X87409000Y-109380000D01*
X87409000Y-106620000D02*
X87409000Y-100464000D01*
X87369000Y-115521000D02*
X87369000Y-109380000D01*
X87369000Y-106620000D02*
X87369000Y-100479000D01*
X87329000Y-115505000D02*
X87329000Y-109380000D01*
X87329000Y-106620000D02*
X87329000Y-100495000D01*
X87289000Y-115490000D02*
X87289000Y-109380000D01*
X87289000Y-106620000D02*
X87289000Y-100510000D01*
X87249000Y-115474000D02*
X87249000Y-109380000D01*
X87249000Y-106620000D02*
X87249000Y-100526000D01*
X87209000Y-115458000D02*
X87209000Y-109380000D01*
X87209000Y-106620000D02*
X87209000Y-100542000D01*
X87169000Y-115441000D02*
X87169000Y-109380000D01*
X87169000Y-106620000D02*
X87169000Y-100559000D01*
X87129000Y-115425000D02*
X87129000Y-109380000D01*
X87129000Y-106620000D02*
X87129000Y-100575000D01*
X87089000Y-115408000D02*
X87089000Y-109380000D01*
X87089000Y-106620000D02*
X87089000Y-100592000D01*
X87049000Y-115391000D02*
X87049000Y-109380000D01*
X87049000Y-106620000D02*
X87049000Y-100609000D01*
X87009000Y-115373000D02*
X87009000Y-109380000D01*
X87009000Y-106620000D02*
X87009000Y-100627000D01*
X86969000Y-115356000D02*
X86969000Y-109380000D01*
X86969000Y-106620000D02*
X86969000Y-100644000D01*
X86929000Y-115338000D02*
X86929000Y-109380000D01*
X86929000Y-106620000D02*
X86929000Y-100662000D01*
X86889000Y-115320000D02*
X86889000Y-109380000D01*
X86889000Y-106620000D02*
X86889000Y-100680000D01*
X86849000Y-115301000D02*
X86849000Y-109380000D01*
X86849000Y-106620000D02*
X86849000Y-100699000D01*
X86809000Y-115283000D02*
X86809000Y-109380000D01*
X86809000Y-106620000D02*
X86809000Y-100717000D01*
X86769000Y-115264000D02*
X86769000Y-109380000D01*
X86769000Y-106620000D02*
X86769000Y-100736000D01*
X86729000Y-115245000D02*
X86729000Y-109380000D01*
X86729000Y-106620000D02*
X86729000Y-100755000D01*
X86689000Y-115225000D02*
X86689000Y-109380000D01*
X86689000Y-106620000D02*
X86689000Y-100775000D01*
X86649000Y-115205000D02*
X86649000Y-109380000D01*
X86649000Y-106620000D02*
X86649000Y-100795000D01*
X86609000Y-115185000D02*
X86609000Y-109380000D01*
X86609000Y-106620000D02*
X86609000Y-100815000D01*
X86569000Y-115165000D02*
X86569000Y-109380000D01*
X86569000Y-106620000D02*
X86569000Y-100835000D01*
X86529000Y-115144000D02*
X86529000Y-109380000D01*
X86529000Y-106620000D02*
X86529000Y-100856000D01*
X86489000Y-115124000D02*
X86489000Y-109380000D01*
X86489000Y-106620000D02*
X86489000Y-100876000D01*
X86449000Y-115102000D02*
X86449000Y-109380000D01*
X86449000Y-106620000D02*
X86449000Y-100898000D01*
X86409000Y-115081000D02*
X86409000Y-109380000D01*
X86409000Y-106620000D02*
X86409000Y-100919000D01*
X86369000Y-115059000D02*
X86369000Y-109380000D01*
X86369000Y-106620000D02*
X86369000Y-100941000D01*
X86329000Y-115037000D02*
X86329000Y-109380000D01*
X86329000Y-106620000D02*
X86329000Y-100963000D01*
X86289000Y-115015000D02*
X86289000Y-109380000D01*
X86289000Y-106620000D02*
X86289000Y-100985000D01*
X86249000Y-114992000D02*
X86249000Y-109380000D01*
X86249000Y-106620000D02*
X86249000Y-101008000D01*
X86209000Y-114970000D02*
X86209000Y-109380000D01*
X86209000Y-106620000D02*
X86209000Y-101030000D01*
X86169000Y-114946000D02*
X86169000Y-109380000D01*
X86169000Y-106620000D02*
X86169000Y-101054000D01*
X86129000Y-114923000D02*
X86129000Y-109380000D01*
X86129000Y-106620000D02*
X86129000Y-101077000D01*
X86089000Y-114899000D02*
X86089000Y-109380000D01*
X86089000Y-106620000D02*
X86089000Y-101101000D01*
X86049000Y-114875000D02*
X86049000Y-109380000D01*
X86049000Y-106620000D02*
X86049000Y-101125000D01*
X86009000Y-114850000D02*
X86009000Y-109380000D01*
X86009000Y-106620000D02*
X86009000Y-101150000D01*
X85969000Y-114826000D02*
X85969000Y-109380000D01*
X85969000Y-106620000D02*
X85969000Y-101174000D01*
X85929000Y-114801000D02*
X85929000Y-109380000D01*
X85929000Y-106620000D02*
X85929000Y-101199000D01*
X85889000Y-114775000D02*
X85889000Y-109380000D01*
X85889000Y-106620000D02*
X85889000Y-101225000D01*
X85849000Y-114749000D02*
X85849000Y-109380000D01*
X85849000Y-106620000D02*
X85849000Y-101251000D01*
X85809000Y-114723000D02*
X85809000Y-109380000D01*
X85809000Y-106620000D02*
X85809000Y-101277000D01*
X85769000Y-114697000D02*
X85769000Y-109380000D01*
X85769000Y-106620000D02*
X85769000Y-101303000D01*
X85729000Y-114670000D02*
X85729000Y-109380000D01*
X85729000Y-106620000D02*
X85729000Y-101330000D01*
X85689000Y-114643000D02*
X85689000Y-109380000D01*
X85689000Y-106620000D02*
X85689000Y-101357000D01*
X85649000Y-114615000D02*
X85649000Y-109380000D01*
X85649000Y-106620000D02*
X85649000Y-101385000D01*
X85609000Y-114588000D02*
X85609000Y-109380000D01*
X85609000Y-106620000D02*
X85609000Y-101412000D01*
X85569000Y-114559000D02*
X85569000Y-109380000D01*
X85569000Y-106620000D02*
X85569000Y-101441000D01*
X85529000Y-114531000D02*
X85529000Y-109380000D01*
X85529000Y-106620000D02*
X85529000Y-101469000D01*
X85489000Y-114502000D02*
X85489000Y-109380000D01*
X85489000Y-106620000D02*
X85489000Y-101498000D01*
X85449000Y-114473000D02*
X85449000Y-109380000D01*
X85449000Y-106620000D02*
X85449000Y-101527000D01*
X85409000Y-114443000D02*
X85409000Y-109380000D01*
X85409000Y-106620000D02*
X85409000Y-101557000D01*
X85369000Y-114413000D02*
X85369000Y-109380000D01*
X85369000Y-106620000D02*
X85369000Y-101587000D01*
X85329000Y-114382000D02*
X85329000Y-109380000D01*
X85329000Y-106620000D02*
X85329000Y-101618000D01*
X85289000Y-114352000D02*
X85289000Y-109380000D01*
X85289000Y-106620000D02*
X85289000Y-101648000D01*
X85249000Y-114320000D02*
X85249000Y-109380000D01*
X85249000Y-106620000D02*
X85249000Y-101680000D01*
X85209000Y-114289000D02*
X85209000Y-109380000D01*
X85209000Y-106620000D02*
X85209000Y-101711000D01*
X85169000Y-114257000D02*
X85169000Y-109380000D01*
X85169000Y-106620000D02*
X85169000Y-101743000D01*
X85129000Y-114224000D02*
X85129000Y-109380000D01*
X85129000Y-106620000D02*
X85129000Y-101776000D01*
X85089000Y-114191000D02*
X85089000Y-101809000D01*
X85049000Y-114158000D02*
X85049000Y-101842000D01*
X85009000Y-114124000D02*
X85009000Y-101876000D01*
X84969000Y-114090000D02*
X84969000Y-101910000D01*
X84929000Y-114055000D02*
X84929000Y-101945000D01*
X84889000Y-114020000D02*
X84889000Y-101980000D01*
X84849000Y-113984000D02*
X84849000Y-102016000D01*
X84809000Y-113948000D02*
X84809000Y-102052000D01*
X84769000Y-113912000D02*
X84769000Y-102088000D01*
X84729000Y-113875000D02*
X84729000Y-102125000D01*
X84689000Y-113837000D02*
X84689000Y-102163000D01*
X84649000Y-113799000D02*
X84649000Y-102201000D01*
X84609000Y-113760000D02*
X84609000Y-102240000D01*
X84569000Y-113721000D02*
X84569000Y-102279000D01*
X84529000Y-113681000D02*
X84529000Y-102319000D01*
X84489000Y-113641000D02*
X84489000Y-102359000D01*
X84449000Y-113600000D02*
X84449000Y-102400000D01*
X84409000Y-113559000D02*
X84409000Y-102441000D01*
X84369000Y-113517000D02*
X84369000Y-102483000D01*
X84329000Y-113474000D02*
X84329000Y-102526000D01*
X84289000Y-113431000D02*
X84289000Y-102569000D01*
X84249000Y-113387000D02*
X84249000Y-102613000D01*
X84209000Y-113343000D02*
X84209000Y-102657000D01*
X84169000Y-113297000D02*
X84169000Y-102703000D01*
X84129000Y-113251000D02*
X84129000Y-102749000D01*
X84089000Y-113205000D02*
X84089000Y-102795000D01*
X84049000Y-113157000D02*
X84049000Y-102843000D01*
X84009000Y-113109000D02*
X84009000Y-102891000D01*
X83969000Y-113060000D02*
X83969000Y-102940000D01*
X83929000Y-113011000D02*
X83929000Y-102989000D01*
X83889000Y-112960000D02*
X83889000Y-103040000D01*
X83849000Y-112909000D02*
X83849000Y-103091000D01*
X83809000Y-112857000D02*
X83809000Y-103143000D01*
X83769000Y-112804000D02*
X83769000Y-103196000D01*
X83729000Y-112750000D02*
X83729000Y-103250000D01*
X83689000Y-112695000D02*
X83689000Y-103305000D01*
X83649000Y-112639000D02*
X83649000Y-103361000D01*
X83609000Y-112582000D02*
X83609000Y-103418000D01*
X83569000Y-112524000D02*
X83569000Y-103476000D01*
X83529000Y-112465000D02*
X83529000Y-103535000D01*
X83489000Y-112405000D02*
X83489000Y-103595000D01*
X83449000Y-112343000D02*
X83449000Y-103657000D01*
X83409000Y-112281000D02*
X83409000Y-103719000D01*
X83369000Y-112217000D02*
X83369000Y-103783000D01*
X83329000Y-112151000D02*
X83329000Y-103849000D01*
X83289000Y-112084000D02*
X83289000Y-103916000D01*
X83249000Y-112016000D02*
X83249000Y-103984000D01*
X83209000Y-111946000D02*
X83209000Y-104054000D01*
X83169000Y-111875000D02*
X83169000Y-104125000D01*
X83129000Y-111802000D02*
X83129000Y-104198000D01*
X83089000Y-111726000D02*
X83089000Y-104274000D01*
X83049000Y-111649000D02*
X83049000Y-104351000D01*
X83009000Y-111570000D02*
X83009000Y-104430000D01*
X82969000Y-111489000D02*
X82969000Y-104511000D01*
X82929000Y-111405000D02*
X82929000Y-104595000D01*
X82889000Y-111319000D02*
X82889000Y-104681000D01*
X82849000Y-111230000D02*
X82849000Y-104770000D01*
X82809000Y-111138000D02*
X82809000Y-104862000D01*
X82769000Y-111042000D02*
X82769000Y-104958000D01*
X82729000Y-110943000D02*
X82729000Y-105057000D01*
X82689000Y-110841000D02*
X82689000Y-105159000D01*
X82649000Y-110733000D02*
X82649000Y-105267000D01*
X82609000Y-110621000D02*
X82609000Y-105379000D01*
X82569000Y-110503000D02*
X82569000Y-105497000D01*
X82529000Y-110379000D02*
X82529000Y-105621000D01*
X82489000Y-110248000D02*
X82489000Y-105752000D01*
X82449000Y-110107000D02*
X82449000Y-105893000D01*
X82409000Y-109956000D02*
X82409000Y-106044000D01*
X82369000Y-109792000D02*
X82369000Y-106208000D01*
X82329000Y-109610000D02*
X82329000Y-106390000D01*
X82289000Y-109405000D02*
X82289000Y-106595000D01*
X82249000Y-109164000D02*
X82249000Y-106836000D01*
X82209000Y-108859000D02*
X82209000Y-107141000D01*
X82169000Y-108363000D02*
X82169000Y-107637000D01*
X97200000Y-108000000D02*
X95400000Y-108000000D01*
X96300000Y-108900000D02*
X96300000Y-107100000D01*
X98340000Y-108000000D02*
G75*
G03X98340000Y-108000000I-8090000J0D01*
G01*
X102940000Y-100690000D02*
X110060000Y-100690000D01*
X102940000Y-103310000D02*
X110060000Y-103310000D01*
X102940000Y-100690000D02*
X102940000Y-103310000D01*
X110060000Y-100690000D02*
X110060000Y-103310000D01*
X131060000Y-103310000D02*
X123940000Y-103310000D01*
X131060000Y-100690000D02*
X123940000Y-100690000D01*
X131060000Y-103310000D02*
X131060000Y-100690000D01*
X123940000Y-103310000D02*
X123940000Y-100690000D01*
X125670000Y-115270000D02*
X125670000Y-115330000D01*
X125670000Y-115330000D02*
X128330000Y-115330000D01*
X128330000Y-115330000D02*
X128330000Y-115270000D01*
X128330000Y-115270000D02*
X125670000Y-115270000D01*
X125670000Y-114000000D02*
X125670000Y-112670000D01*
X125670000Y-112670000D02*
X127000000Y-112670000D01*
X143670000Y-107270000D02*
X143670000Y-107330000D01*
X143670000Y-107330000D02*
X146330000Y-107330000D01*
X146330000Y-107330000D02*
X146330000Y-107270000D01*
X146330000Y-107270000D02*
X143670000Y-107270000D01*
X143670000Y-106000000D02*
X143670000Y-104670000D01*
X143670000Y-104670000D02*
X145000000Y-104670000D01*
X143670000Y-101270000D02*
X143670000Y-101330000D01*
X143670000Y-101330000D02*
X146330000Y-101330000D01*
X146330000Y-101330000D02*
X146330000Y-101270000D01*
X146330000Y-101270000D02*
X143670000Y-101270000D01*
X143670000Y-100000000D02*
X143670000Y-98670000D01*
X143670000Y-98670000D02*
X145000000Y-98670000D01*
X137950000Y-73140000D02*
X137950000Y-74860000D01*
X137950000Y-74860000D02*
X141670000Y-74860000D01*
X141670000Y-74860000D02*
X141670000Y-73140000D01*
X141670000Y-73140000D02*
X137950000Y-73140000D01*
X136880000Y-74000000D02*
X137950000Y-74000000D01*
X142740000Y-74000000D02*
X141670000Y-74000000D01*
X106690000Y-96130000D02*
X109310000Y-96130000D01*
X109310000Y-96130000D02*
X109310000Y-89710000D01*
X109310000Y-89710000D02*
X106690000Y-89710000D01*
X106690000Y-89710000D02*
X106690000Y-96130000D01*
X108000000Y-97020000D02*
X108000000Y-96130000D01*
X108000000Y-88820000D02*
X108000000Y-89710000D01*
X124690000Y-96130000D02*
X127310000Y-96130000D01*
X127310000Y-96130000D02*
X127310000Y-89710000D01*
X127310000Y-89710000D02*
X124690000Y-89710000D01*
X124690000Y-89710000D02*
X124690000Y-96130000D01*
X126000000Y-97020000D02*
X126000000Y-96130000D01*
X126000000Y-88820000D02*
X126000000Y-89710000D01*
X117860000Y-89950000D02*
X116140000Y-89950000D01*
X116140000Y-89950000D02*
X116140000Y-93670000D01*
X116140000Y-93670000D02*
X117860000Y-93670000D01*
X117860000Y-93670000D02*
X117860000Y-89950000D01*
X117000000Y-88880000D02*
X117000000Y-89950000D01*
X117000000Y-94740000D02*
X117000000Y-93670000D01*
X133860000Y-78950000D02*
X132140000Y-78950000D01*
X132140000Y-78950000D02*
X132140000Y-82670000D01*
X132140000Y-82670000D02*
X133860000Y-82670000D01*
X133860000Y-82670000D02*
X133860000Y-78950000D01*
X133000000Y-77880000D02*
X133000000Y-78950000D01*
X133000000Y-83740000D02*
X133000000Y-82670000D01*
X147860000Y-78950000D02*
X146140000Y-78950000D01*
X146140000Y-78950000D02*
X146140000Y-82670000D01*
X146140000Y-82670000D02*
X147860000Y-82670000D01*
X147860000Y-82670000D02*
X147860000Y-78950000D01*
X147000000Y-77880000D02*
X147000000Y-78950000D01*
X147000000Y-83740000D02*
X147000000Y-82670000D01*
X105310000Y-89870000D02*
X102690000Y-89870000D01*
X102690000Y-89870000D02*
X102690000Y-96290000D01*
X102690000Y-96290000D02*
X105310000Y-96290000D01*
X105310000Y-96290000D02*
X105310000Y-89870000D01*
X104000000Y-88980000D02*
X104000000Y-89870000D01*
X104000000Y-97180000D02*
X104000000Y-96290000D01*
X131310000Y-89870000D02*
X128690000Y-89870000D01*
X128690000Y-89870000D02*
X128690000Y-96290000D01*
X128690000Y-96290000D02*
X131310000Y-96290000D01*
X131310000Y-96290000D02*
X131310000Y-89870000D01*
X130000000Y-88980000D02*
X130000000Y-89870000D01*
X130000000Y-97180000D02*
X130000000Y-96290000D01*
D12*
X127000000Y-76000000D02*
X127000000Y-74000000D01*
X125000000Y-76000000D02*
X125000000Y-74000000D01*
X123000000Y-76000000D02*
X123000000Y-74000000D01*
X121000000Y-76000000D02*
X121000000Y-74000000D01*
X119000000Y-76000000D02*
X119000000Y-74000000D01*
X117000000Y-76000000D02*
X117000000Y-74000000D01*
X115000000Y-76000000D02*
X115000000Y-74000000D01*
X113000000Y-76000000D02*
X113000000Y-74000000D01*
X111000000Y-76000000D02*
X111000000Y-74000000D01*
X109000000Y-76000000D02*
X109000000Y-74000000D01*
X107000000Y-76000000D02*
X107000000Y-74000000D01*
X105000000Y-76000000D02*
X105000000Y-74000000D01*
X103000000Y-76000000D02*
X103000000Y-74000000D01*
X128000000Y-80000000D02*
X128000000Y-76000000D01*
X126000000Y-80000000D02*
X126000000Y-76000000D01*
X124000000Y-80000000D02*
X124000000Y-76000000D01*
X122000000Y-80000000D02*
X122000000Y-76000000D01*
X120000000Y-80000000D02*
X120000000Y-76000000D01*
X118000000Y-80000000D02*
X118000000Y-76000000D01*
X116000000Y-80000000D02*
X116000000Y-76000000D01*
X114000000Y-80000000D02*
X114000000Y-76000000D01*
X112000000Y-80000000D02*
X112000000Y-76000000D01*
X110000000Y-80000000D02*
X110000000Y-76000000D01*
X108000000Y-80000000D02*
X108000000Y-76000000D01*
X106000000Y-80000000D02*
X106000000Y-76000000D01*
X104000000Y-80000000D02*
X104000000Y-76000000D01*
X102000000Y-80000000D02*
X102000000Y-76000000D01*
X100000000Y-76000000D02*
X100000000Y-72000000D01*
X100000000Y-72000000D02*
X130000000Y-72000000D01*
X130000000Y-72000000D02*
X130000000Y-76000000D01*
X130000000Y-76000000D02*
X100000000Y-76000000D01*
D13*
X137670000Y-115270000D02*
X137670000Y-115330000D01*
X137670000Y-115330000D02*
X140330000Y-115330000D01*
X140330000Y-115330000D02*
X140330000Y-115270000D01*
X140330000Y-115270000D02*
X137670000Y-115270000D01*
X137670000Y-114000000D02*
X137670000Y-112670000D01*
X137670000Y-112670000D02*
X139000000Y-112670000D01*
X113670000Y-115270000D02*
X113670000Y-115330000D01*
X113670000Y-115330000D02*
X116330000Y-115330000D01*
X116330000Y-115330000D02*
X116330000Y-115270000D01*
X116330000Y-115270000D02*
X113670000Y-115270000D01*
X113670000Y-114000000D02*
X113670000Y-112670000D01*
X113670000Y-112670000D02*
X115000000Y-112670000D01*
X80450000Y-78000000D02*
X85550000Y-78000000D01*
X80450000Y-77960000D02*
X82020000Y-77960000D01*
X83980000Y-77960000D02*
X85550000Y-77960000D01*
X80451000Y-77920000D02*
X82020000Y-77920000D01*
X83980000Y-77920000D02*
X85549000Y-77920000D01*
X80452000Y-77880000D02*
X82020000Y-77880000D01*
X83980000Y-77880000D02*
X85548000Y-77880000D01*
X80454000Y-77840000D02*
X82020000Y-77840000D01*
X83980000Y-77840000D02*
X85546000Y-77840000D01*
X80457000Y-77800000D02*
X82020000Y-77800000D01*
X83980000Y-77800000D02*
X85543000Y-77800000D01*
X80461000Y-77760000D02*
X82020000Y-77760000D01*
X83980000Y-77760000D02*
X85539000Y-77760000D01*
X80465000Y-77720000D02*
X82020000Y-77720000D01*
X83980000Y-77720000D02*
X85535000Y-77720000D01*
X80469000Y-77680000D02*
X82020000Y-77680000D01*
X83980000Y-77680000D02*
X85531000Y-77680000D01*
X80475000Y-77640000D02*
X82020000Y-77640000D01*
X83980000Y-77640000D02*
X85525000Y-77640000D01*
X80481000Y-77600000D02*
X82020000Y-77600000D01*
X83980000Y-77600000D02*
X85519000Y-77600000D01*
X80487000Y-77560000D02*
X82020000Y-77560000D01*
X83980000Y-77560000D02*
X85513000Y-77560000D01*
X80494000Y-77520000D02*
X82020000Y-77520000D01*
X83980000Y-77520000D02*
X85506000Y-77520000D01*
X80502000Y-77480000D02*
X82020000Y-77480000D01*
X83980000Y-77480000D02*
X85498000Y-77480000D01*
X80511000Y-77440000D02*
X82020000Y-77440000D01*
X83980000Y-77440000D02*
X85489000Y-77440000D01*
X80520000Y-77400000D02*
X82020000Y-77400000D01*
X83980000Y-77400000D02*
X85480000Y-77400000D01*
X80530000Y-77360000D02*
X82020000Y-77360000D01*
X83980000Y-77360000D02*
X85470000Y-77360000D01*
X80540000Y-77320000D02*
X82020000Y-77320000D01*
X83980000Y-77320000D02*
X85460000Y-77320000D01*
X80552000Y-77279000D02*
X82020000Y-77279000D01*
X83980000Y-77279000D02*
X85448000Y-77279000D01*
X80564000Y-77239000D02*
X82020000Y-77239000D01*
X83980000Y-77239000D02*
X85436000Y-77239000D01*
X80576000Y-77199000D02*
X82020000Y-77199000D01*
X83980000Y-77199000D02*
X85424000Y-77199000D01*
X80590000Y-77159000D02*
X82020000Y-77159000D01*
X83980000Y-77159000D02*
X85410000Y-77159000D01*
X80604000Y-77119000D02*
X82020000Y-77119000D01*
X83980000Y-77119000D02*
X85396000Y-77119000D01*
X80618000Y-77079000D02*
X82020000Y-77079000D01*
X83980000Y-77079000D02*
X85382000Y-77079000D01*
X80634000Y-77039000D02*
X82020000Y-77039000D01*
X83980000Y-77039000D02*
X85366000Y-77039000D01*
X80650000Y-76999000D02*
X82020000Y-76999000D01*
X83980000Y-76999000D02*
X85350000Y-76999000D01*
X80667000Y-76959000D02*
X82020000Y-76959000D01*
X83980000Y-76959000D02*
X85333000Y-76959000D01*
X80685000Y-76919000D02*
X82020000Y-76919000D01*
X83980000Y-76919000D02*
X85315000Y-76919000D01*
X80704000Y-76879000D02*
X82020000Y-76879000D01*
X83980000Y-76879000D02*
X85296000Y-76879000D01*
X80724000Y-76839000D02*
X82020000Y-76839000D01*
X83980000Y-76839000D02*
X85276000Y-76839000D01*
X80744000Y-76799000D02*
X82020000Y-76799000D01*
X83980000Y-76799000D02*
X85256000Y-76799000D01*
X80766000Y-76759000D02*
X82020000Y-76759000D01*
X83980000Y-76759000D02*
X85234000Y-76759000D01*
X80788000Y-76719000D02*
X82020000Y-76719000D01*
X83980000Y-76719000D02*
X85212000Y-76719000D01*
X80811000Y-76679000D02*
X82020000Y-76679000D01*
X83980000Y-76679000D02*
X85189000Y-76679000D01*
X80835000Y-76639000D02*
X82020000Y-76639000D01*
X83980000Y-76639000D02*
X85165000Y-76639000D01*
X80860000Y-76599000D02*
X82020000Y-76599000D01*
X83980000Y-76599000D02*
X85140000Y-76599000D01*
X80887000Y-76559000D02*
X82020000Y-76559000D01*
X83980000Y-76559000D02*
X85113000Y-76559000D01*
X80914000Y-76519000D02*
X82020000Y-76519000D01*
X83980000Y-76519000D02*
X85086000Y-76519000D01*
X80942000Y-76479000D02*
X82020000Y-76479000D01*
X83980000Y-76479000D02*
X85058000Y-76479000D01*
X80972000Y-76439000D02*
X82020000Y-76439000D01*
X83980000Y-76439000D02*
X85028000Y-76439000D01*
X81003000Y-76399000D02*
X82020000Y-76399000D01*
X83980000Y-76399000D02*
X84997000Y-76399000D01*
X81035000Y-76359000D02*
X82020000Y-76359000D01*
X83980000Y-76359000D02*
X84965000Y-76359000D01*
X81068000Y-76319000D02*
X82020000Y-76319000D01*
X83980000Y-76319000D02*
X84932000Y-76319000D01*
X81103000Y-76279000D02*
X82020000Y-76279000D01*
X83980000Y-76279000D02*
X84897000Y-76279000D01*
X81139000Y-76239000D02*
X82020000Y-76239000D01*
X83980000Y-76239000D02*
X84861000Y-76239000D01*
X81177000Y-76199000D02*
X82020000Y-76199000D01*
X83980000Y-76199000D02*
X84823000Y-76199000D01*
X81217000Y-76159000D02*
X82020000Y-76159000D01*
X83980000Y-76159000D02*
X84783000Y-76159000D01*
X81258000Y-76119000D02*
X82020000Y-76119000D01*
X83980000Y-76119000D02*
X84742000Y-76119000D01*
X81301000Y-76079000D02*
X82020000Y-76079000D01*
X83980000Y-76079000D02*
X84699000Y-76079000D01*
X81346000Y-76039000D02*
X82020000Y-76039000D01*
X83980000Y-76039000D02*
X84654000Y-76039000D01*
X81394000Y-75999000D02*
X84606000Y-75999000D01*
X81444000Y-75959000D02*
X84556000Y-75959000D01*
X81496000Y-75919000D02*
X84504000Y-75919000D01*
X81552000Y-75879000D02*
X84448000Y-75879000D01*
X81610000Y-75839000D02*
X84390000Y-75839000D01*
X81673000Y-75799000D02*
X84327000Y-75799000D01*
X81739000Y-75759000D02*
X84261000Y-75759000D01*
X81811000Y-75719000D02*
X84189000Y-75719000D01*
X81888000Y-75679000D02*
X84112000Y-75679000D01*
X81972000Y-75639000D02*
X84028000Y-75639000D01*
X82066000Y-75599000D02*
X83934000Y-75599000D01*
X82171000Y-75559000D02*
X83829000Y-75559000D01*
X82293000Y-75519000D02*
X83707000Y-75519000D01*
X82441000Y-75479000D02*
X83559000Y-75479000D01*
X82646000Y-75439000D02*
X83354000Y-75439000D01*
X83000000Y-81200000D02*
X83000000Y-80000000D01*
X82350000Y-80600000D02*
X83650000Y-80600000D01*
X82018600Y-75603137D02*
G75*
G03X82020000Y-80397436I981400J-2396863D01*
G01*
X83981400Y-75603137D02*
G75*
G02X83980000Y-80397436I-981400J-2396863D01*
G01*
X83981400Y-75603137D02*
G75*
G03X82020000Y-75602564I-981400J-2396863D01*
G01*
X90250000Y-99051000D02*
X90250000Y-82949000D01*
X90210000Y-99050000D02*
X90210000Y-82950000D01*
X90170000Y-99050000D02*
X90170000Y-82950000D01*
X90130000Y-99050000D02*
X90130000Y-82950000D01*
X90090000Y-99049000D02*
X90090000Y-82951000D01*
X90050000Y-99048000D02*
X90050000Y-82952000D01*
X90010000Y-99047000D02*
X90010000Y-82953000D01*
X89970000Y-99046000D02*
X89970000Y-82954000D01*
X89930000Y-99044000D02*
X89930000Y-82956000D01*
X89890000Y-99042000D02*
X89890000Y-82958000D01*
X89850000Y-99041000D02*
X89850000Y-82959000D01*
X89810000Y-99039000D02*
X89810000Y-82961000D01*
X89770000Y-99036000D02*
X89770000Y-82964000D01*
X89730000Y-99034000D02*
X89730000Y-82966000D01*
X89690000Y-99031000D02*
X89690000Y-82969000D01*
X89650000Y-99028000D02*
X89650000Y-82972000D01*
X89610000Y-99025000D02*
X89610000Y-82975000D01*
X89570000Y-99022000D02*
X89570000Y-82978000D01*
X89529000Y-99018000D02*
X89529000Y-82982000D01*
X89489000Y-99015000D02*
X89489000Y-82985000D01*
X89449000Y-99011000D02*
X89449000Y-82989000D01*
X89409000Y-99007000D02*
X89409000Y-82993000D01*
X89369000Y-99002000D02*
X89369000Y-82998000D01*
X89329000Y-98998000D02*
X89329000Y-83002000D01*
X89289000Y-98993000D02*
X89289000Y-83007000D01*
X89249000Y-98988000D02*
X89249000Y-83012000D01*
X89209000Y-98983000D02*
X89209000Y-83017000D01*
X89169000Y-98978000D02*
X89169000Y-83022000D01*
X89129000Y-98973000D02*
X89129000Y-83027000D01*
X89089000Y-98967000D02*
X89089000Y-83033000D01*
X89049000Y-98961000D02*
X89049000Y-83039000D01*
X89009000Y-98955000D02*
X89009000Y-83045000D01*
X88969000Y-98949000D02*
X88969000Y-83051000D01*
X88929000Y-98942000D02*
X88929000Y-83058000D01*
X88889000Y-98935000D02*
X88889000Y-83065000D01*
X88849000Y-98928000D02*
X88849000Y-83072000D01*
X88809000Y-98921000D02*
X88809000Y-83079000D01*
X88769000Y-98914000D02*
X88769000Y-83086000D01*
X88729000Y-98906000D02*
X88729000Y-83094000D01*
X88689000Y-98899000D02*
X88689000Y-83101000D01*
X88649000Y-98891000D02*
X88649000Y-83109000D01*
X88609000Y-98883000D02*
X88609000Y-83117000D01*
X88569000Y-98874000D02*
X88569000Y-83126000D01*
X88529000Y-98866000D02*
X88529000Y-83134000D01*
X88489000Y-98857000D02*
X88489000Y-83143000D01*
X88449000Y-98848000D02*
X88449000Y-83152000D01*
X88409000Y-98838000D02*
X88409000Y-83162000D01*
X88369000Y-98829000D02*
X88369000Y-83171000D01*
X88329000Y-98819000D02*
X88329000Y-83181000D01*
X88289000Y-98809000D02*
X88289000Y-83191000D01*
X88249000Y-98799000D02*
X88249000Y-83201000D01*
X88209000Y-98789000D02*
X88209000Y-83211000D01*
X88169000Y-98779000D02*
X88169000Y-83221000D01*
X88129000Y-98768000D02*
X88129000Y-83232000D01*
X88089000Y-98757000D02*
X88089000Y-83243000D01*
X88049000Y-98746000D02*
X88049000Y-83254000D01*
X88009000Y-98734000D02*
X88009000Y-83266000D01*
X87969000Y-98723000D02*
X87969000Y-83277000D01*
X87929000Y-98711000D02*
X87929000Y-83289000D01*
X87889000Y-98699000D02*
X87889000Y-83301000D01*
X87849000Y-98686000D02*
X87849000Y-92380000D01*
X87849000Y-89620000D02*
X87849000Y-83314000D01*
X87809000Y-98674000D02*
X87809000Y-92380000D01*
X87809000Y-89620000D02*
X87809000Y-83326000D01*
X87769000Y-98661000D02*
X87769000Y-92380000D01*
X87769000Y-89620000D02*
X87769000Y-83339000D01*
X87729000Y-98648000D02*
X87729000Y-92380000D01*
X87729000Y-89620000D02*
X87729000Y-83352000D01*
X87689000Y-98635000D02*
X87689000Y-92380000D01*
X87689000Y-89620000D02*
X87689000Y-83365000D01*
X87649000Y-98621000D02*
X87649000Y-92380000D01*
X87649000Y-89620000D02*
X87649000Y-83379000D01*
X87609000Y-98608000D02*
X87609000Y-92380000D01*
X87609000Y-89620000D02*
X87609000Y-83392000D01*
X87569000Y-98594000D02*
X87569000Y-92380000D01*
X87569000Y-89620000D02*
X87569000Y-83406000D01*
X87529000Y-98580000D02*
X87529000Y-92380000D01*
X87529000Y-89620000D02*
X87529000Y-83420000D01*
X87489000Y-98565000D02*
X87489000Y-92380000D01*
X87489000Y-89620000D02*
X87489000Y-83435000D01*
X87449000Y-98550000D02*
X87449000Y-92380000D01*
X87449000Y-89620000D02*
X87449000Y-83450000D01*
X87409000Y-98536000D02*
X87409000Y-92380000D01*
X87409000Y-89620000D02*
X87409000Y-83464000D01*
X87369000Y-98521000D02*
X87369000Y-92380000D01*
X87369000Y-89620000D02*
X87369000Y-83479000D01*
X87329000Y-98505000D02*
X87329000Y-92380000D01*
X87329000Y-89620000D02*
X87329000Y-83495000D01*
X87289000Y-98490000D02*
X87289000Y-92380000D01*
X87289000Y-89620000D02*
X87289000Y-83510000D01*
X87249000Y-98474000D02*
X87249000Y-92380000D01*
X87249000Y-89620000D02*
X87249000Y-83526000D01*
X87209000Y-98458000D02*
X87209000Y-92380000D01*
X87209000Y-89620000D02*
X87209000Y-83542000D01*
X87169000Y-98441000D02*
X87169000Y-92380000D01*
X87169000Y-89620000D02*
X87169000Y-83559000D01*
X87129000Y-98425000D02*
X87129000Y-92380000D01*
X87129000Y-89620000D02*
X87129000Y-83575000D01*
X87089000Y-98408000D02*
X87089000Y-92380000D01*
X87089000Y-89620000D02*
X87089000Y-83592000D01*
X87049000Y-98391000D02*
X87049000Y-92380000D01*
X87049000Y-89620000D02*
X87049000Y-83609000D01*
X87009000Y-98373000D02*
X87009000Y-92380000D01*
X87009000Y-89620000D02*
X87009000Y-83627000D01*
X86969000Y-98356000D02*
X86969000Y-92380000D01*
X86969000Y-89620000D02*
X86969000Y-83644000D01*
X86929000Y-98338000D02*
X86929000Y-92380000D01*
X86929000Y-89620000D02*
X86929000Y-83662000D01*
X86889000Y-98320000D02*
X86889000Y-92380000D01*
X86889000Y-89620000D02*
X86889000Y-83680000D01*
X86849000Y-98301000D02*
X86849000Y-92380000D01*
X86849000Y-89620000D02*
X86849000Y-83699000D01*
X86809000Y-98283000D02*
X86809000Y-92380000D01*
X86809000Y-89620000D02*
X86809000Y-83717000D01*
X86769000Y-98264000D02*
X86769000Y-92380000D01*
X86769000Y-89620000D02*
X86769000Y-83736000D01*
X86729000Y-98245000D02*
X86729000Y-92380000D01*
X86729000Y-89620000D02*
X86729000Y-83755000D01*
X86689000Y-98225000D02*
X86689000Y-92380000D01*
X86689000Y-89620000D02*
X86689000Y-83775000D01*
X86649000Y-98205000D02*
X86649000Y-92380000D01*
X86649000Y-89620000D02*
X86649000Y-83795000D01*
X86609000Y-98185000D02*
X86609000Y-92380000D01*
X86609000Y-89620000D02*
X86609000Y-83815000D01*
X86569000Y-98165000D02*
X86569000Y-92380000D01*
X86569000Y-89620000D02*
X86569000Y-83835000D01*
X86529000Y-98144000D02*
X86529000Y-92380000D01*
X86529000Y-89620000D02*
X86529000Y-83856000D01*
X86489000Y-98124000D02*
X86489000Y-92380000D01*
X86489000Y-89620000D02*
X86489000Y-83876000D01*
X86449000Y-98102000D02*
X86449000Y-92380000D01*
X86449000Y-89620000D02*
X86449000Y-83898000D01*
X86409000Y-98081000D02*
X86409000Y-92380000D01*
X86409000Y-89620000D02*
X86409000Y-83919000D01*
X86369000Y-98059000D02*
X86369000Y-92380000D01*
X86369000Y-89620000D02*
X86369000Y-83941000D01*
X86329000Y-98037000D02*
X86329000Y-92380000D01*
X86329000Y-89620000D02*
X86329000Y-83963000D01*
X86289000Y-98015000D02*
X86289000Y-92380000D01*
X86289000Y-89620000D02*
X86289000Y-83985000D01*
X86249000Y-97992000D02*
X86249000Y-92380000D01*
X86249000Y-89620000D02*
X86249000Y-84008000D01*
X86209000Y-97970000D02*
X86209000Y-92380000D01*
X86209000Y-89620000D02*
X86209000Y-84030000D01*
X86169000Y-97946000D02*
X86169000Y-92380000D01*
X86169000Y-89620000D02*
X86169000Y-84054000D01*
X86129000Y-97923000D02*
X86129000Y-92380000D01*
X86129000Y-89620000D02*
X86129000Y-84077000D01*
X86089000Y-97899000D02*
X86089000Y-92380000D01*
X86089000Y-89620000D02*
X86089000Y-84101000D01*
X86049000Y-97875000D02*
X86049000Y-92380000D01*
X86049000Y-89620000D02*
X86049000Y-84125000D01*
X86009000Y-97850000D02*
X86009000Y-92380000D01*
X86009000Y-89620000D02*
X86009000Y-84150000D01*
X85969000Y-97826000D02*
X85969000Y-92380000D01*
X85969000Y-89620000D02*
X85969000Y-84174000D01*
X85929000Y-97801000D02*
X85929000Y-92380000D01*
X85929000Y-89620000D02*
X85929000Y-84199000D01*
X85889000Y-97775000D02*
X85889000Y-92380000D01*
X85889000Y-89620000D02*
X85889000Y-84225000D01*
X85849000Y-97749000D02*
X85849000Y-92380000D01*
X85849000Y-89620000D02*
X85849000Y-84251000D01*
X85809000Y-97723000D02*
X85809000Y-92380000D01*
X85809000Y-89620000D02*
X85809000Y-84277000D01*
X85769000Y-97697000D02*
X85769000Y-92380000D01*
X85769000Y-89620000D02*
X85769000Y-84303000D01*
X85729000Y-97670000D02*
X85729000Y-92380000D01*
X85729000Y-89620000D02*
X85729000Y-84330000D01*
X85689000Y-97643000D02*
X85689000Y-92380000D01*
X85689000Y-89620000D02*
X85689000Y-84357000D01*
X85649000Y-97615000D02*
X85649000Y-92380000D01*
X85649000Y-89620000D02*
X85649000Y-84385000D01*
X85609000Y-97588000D02*
X85609000Y-92380000D01*
X85609000Y-89620000D02*
X85609000Y-84412000D01*
X85569000Y-97559000D02*
X85569000Y-92380000D01*
X85569000Y-89620000D02*
X85569000Y-84441000D01*
X85529000Y-97531000D02*
X85529000Y-92380000D01*
X85529000Y-89620000D02*
X85529000Y-84469000D01*
X85489000Y-97502000D02*
X85489000Y-92380000D01*
X85489000Y-89620000D02*
X85489000Y-84498000D01*
X85449000Y-97473000D02*
X85449000Y-92380000D01*
X85449000Y-89620000D02*
X85449000Y-84527000D01*
X85409000Y-97443000D02*
X85409000Y-92380000D01*
X85409000Y-89620000D02*
X85409000Y-84557000D01*
X85369000Y-97413000D02*
X85369000Y-92380000D01*
X85369000Y-89620000D02*
X85369000Y-84587000D01*
X85329000Y-97382000D02*
X85329000Y-92380000D01*
X85329000Y-89620000D02*
X85329000Y-84618000D01*
X85289000Y-97352000D02*
X85289000Y-92380000D01*
X85289000Y-89620000D02*
X85289000Y-84648000D01*
X85249000Y-97320000D02*
X85249000Y-92380000D01*
X85249000Y-89620000D02*
X85249000Y-84680000D01*
X85209000Y-97289000D02*
X85209000Y-92380000D01*
X85209000Y-89620000D02*
X85209000Y-84711000D01*
X85169000Y-97257000D02*
X85169000Y-92380000D01*
X85169000Y-89620000D02*
X85169000Y-84743000D01*
X85129000Y-97224000D02*
X85129000Y-92380000D01*
X85129000Y-89620000D02*
X85129000Y-84776000D01*
X85089000Y-97191000D02*
X85089000Y-84809000D01*
X85049000Y-97158000D02*
X85049000Y-84842000D01*
X85009000Y-97124000D02*
X85009000Y-84876000D01*
X84969000Y-97090000D02*
X84969000Y-84910000D01*
X84929000Y-97055000D02*
X84929000Y-84945000D01*
X84889000Y-97020000D02*
X84889000Y-84980000D01*
X84849000Y-96984000D02*
X84849000Y-85016000D01*
X84809000Y-96948000D02*
X84809000Y-85052000D01*
X84769000Y-96912000D02*
X84769000Y-85088000D01*
X84729000Y-96875000D02*
X84729000Y-85125000D01*
X84689000Y-96837000D02*
X84689000Y-85163000D01*
X84649000Y-96799000D02*
X84649000Y-85201000D01*
X84609000Y-96760000D02*
X84609000Y-85240000D01*
X84569000Y-96721000D02*
X84569000Y-85279000D01*
X84529000Y-96681000D02*
X84529000Y-85319000D01*
X84489000Y-96641000D02*
X84489000Y-85359000D01*
X84449000Y-96600000D02*
X84449000Y-85400000D01*
X84409000Y-96559000D02*
X84409000Y-85441000D01*
X84369000Y-96517000D02*
X84369000Y-85483000D01*
X84329000Y-96474000D02*
X84329000Y-85526000D01*
X84289000Y-96431000D02*
X84289000Y-85569000D01*
X84249000Y-96387000D02*
X84249000Y-85613000D01*
X84209000Y-96343000D02*
X84209000Y-85657000D01*
X84169000Y-96297000D02*
X84169000Y-85703000D01*
X84129000Y-96251000D02*
X84129000Y-85749000D01*
X84089000Y-96205000D02*
X84089000Y-85795000D01*
X84049000Y-96157000D02*
X84049000Y-85843000D01*
X84009000Y-96109000D02*
X84009000Y-85891000D01*
X83969000Y-96060000D02*
X83969000Y-85940000D01*
X83929000Y-96011000D02*
X83929000Y-85989000D01*
X83889000Y-95960000D02*
X83889000Y-86040000D01*
X83849000Y-95909000D02*
X83849000Y-86091000D01*
X83809000Y-95857000D02*
X83809000Y-86143000D01*
X83769000Y-95804000D02*
X83769000Y-86196000D01*
X83729000Y-95750000D02*
X83729000Y-86250000D01*
X83689000Y-95695000D02*
X83689000Y-86305000D01*
X83649000Y-95639000D02*
X83649000Y-86361000D01*
X83609000Y-95582000D02*
X83609000Y-86418000D01*
X83569000Y-95524000D02*
X83569000Y-86476000D01*
X83529000Y-95465000D02*
X83529000Y-86535000D01*
X83489000Y-95405000D02*
X83489000Y-86595000D01*
X83449000Y-95343000D02*
X83449000Y-86657000D01*
X83409000Y-95281000D02*
X83409000Y-86719000D01*
X83369000Y-95217000D02*
X83369000Y-86783000D01*
X83329000Y-95151000D02*
X83329000Y-86849000D01*
X83289000Y-95084000D02*
X83289000Y-86916000D01*
X83249000Y-95016000D02*
X83249000Y-86984000D01*
X83209000Y-94946000D02*
X83209000Y-87054000D01*
X83169000Y-94875000D02*
X83169000Y-87125000D01*
X83129000Y-94802000D02*
X83129000Y-87198000D01*
X83089000Y-94726000D02*
X83089000Y-87274000D01*
X83049000Y-94649000D02*
X83049000Y-87351000D01*
X83009000Y-94570000D02*
X83009000Y-87430000D01*
X82969000Y-94489000D02*
X82969000Y-87511000D01*
X82929000Y-94405000D02*
X82929000Y-87595000D01*
X82889000Y-94319000D02*
X82889000Y-87681000D01*
X82849000Y-94230000D02*
X82849000Y-87770000D01*
X82809000Y-94138000D02*
X82809000Y-87862000D01*
X82769000Y-94042000D02*
X82769000Y-87958000D01*
X82729000Y-93943000D02*
X82729000Y-88057000D01*
X82689000Y-93841000D02*
X82689000Y-88159000D01*
X82649000Y-93733000D02*
X82649000Y-88267000D01*
X82609000Y-93621000D02*
X82609000Y-88379000D01*
X82569000Y-93503000D02*
X82569000Y-88497000D01*
X82529000Y-93379000D02*
X82529000Y-88621000D01*
X82489000Y-93248000D02*
X82489000Y-88752000D01*
X82449000Y-93107000D02*
X82449000Y-88893000D01*
X82409000Y-92956000D02*
X82409000Y-89044000D01*
X82369000Y-92792000D02*
X82369000Y-89208000D01*
X82329000Y-92610000D02*
X82329000Y-89390000D01*
X82289000Y-92405000D02*
X82289000Y-89595000D01*
X82249000Y-92164000D02*
X82249000Y-89836000D01*
X82209000Y-91859000D02*
X82209000Y-90141000D01*
X82169000Y-91363000D02*
X82169000Y-90637000D01*
X97200000Y-91000000D02*
X95400000Y-91000000D01*
X96300000Y-91900000D02*
X96300000Y-90100000D01*
X98340000Y-91000000D02*
G75*
G03X98340000Y-91000000I-8090000J0D01*
G01*
X82820000Y-100360000D02*
X79100000Y-100360000D01*
X82820000Y-98640000D02*
X79100000Y-98640000D01*
X137950000Y-85140000D02*
X137950000Y-86860000D01*
X137950000Y-86860000D02*
X141670000Y-86860000D01*
X141670000Y-86860000D02*
X141670000Y-85140000D01*
X141670000Y-85140000D02*
X137950000Y-85140000D01*
X136880000Y-86000000D02*
X137950000Y-86000000D01*
X142740000Y-86000000D02*
X141670000Y-86000000D01*
X144670000Y-90770000D02*
X144670000Y-90830000D01*
X144670000Y-90830000D02*
X147330000Y-90830000D01*
X147330000Y-90830000D02*
X147330000Y-90770000D01*
X147330000Y-90770000D02*
X144670000Y-90770000D01*
X144670000Y-89500000D02*
X144670000Y-88170000D01*
X144670000Y-88170000D02*
X146000000Y-88170000D01*
D10*
X139417262Y-94771429D02*
X139492262Y-94171429D01*
X139893452Y-94771429D02*
X139968452Y-94171429D01*
X140464881Y-94771429D01*
X140539881Y-94171429D01*
D13*
X134082440Y-105561905D02*
X134368154Y-105561905D01*
X134506250Y-105600000D01*
X134639583Y-105676190D01*
X134691964Y-105828571D01*
X134658630Y-106095238D01*
X134568155Y-106247619D01*
X134415774Y-106323810D01*
X134268154Y-106361905D01*
X133982440Y-106361905D01*
X133844345Y-106323810D01*
X133711012Y-106247619D01*
X133658630Y-106095238D01*
X133691964Y-105828571D01*
X133782440Y-105676190D01*
X133934821Y-105600000D01*
X134082440Y-105561905D01*
X135368155Y-105561905D02*
X135287203Y-106209524D01*
X135349107Y-106285714D01*
X135415774Y-106323810D01*
X135553869Y-106361905D01*
X135839583Y-106361905D01*
X135987203Y-106323810D01*
X136063393Y-106285714D01*
X136144346Y-106209524D01*
X136225298Y-105561905D01*
X136725298Y-105561905D02*
X137582441Y-105561905D01*
X137053870Y-106361905D02*
X137153870Y-105561905D01*
X138020536Y-106057143D02*
X139163393Y-106057143D01*
X138553869Y-106361905D02*
X138630059Y-105752381D01*
X134082440Y-99561905D02*
X134368154Y-99561905D01*
X134506250Y-99600000D01*
X134639583Y-99676190D01*
X134691964Y-99828571D01*
X134658630Y-100095238D01*
X134568155Y-100247619D01*
X134415774Y-100323810D01*
X134268154Y-100361905D01*
X133982440Y-100361905D01*
X133844345Y-100323810D01*
X133711012Y-100247619D01*
X133658630Y-100095238D01*
X133691964Y-99828571D01*
X133782440Y-99676190D01*
X133934821Y-99600000D01*
X134082440Y-99561905D01*
X135368155Y-99561905D02*
X135287203Y-100209524D01*
X135349107Y-100285714D01*
X135415774Y-100323810D01*
X135553869Y-100361905D01*
X135839583Y-100361905D01*
X135987203Y-100323810D01*
X136063393Y-100285714D01*
X136144346Y-100209524D01*
X136225298Y-99561905D01*
X136725298Y-99561905D02*
X137582441Y-99561905D01*
X137053870Y-100361905D02*
X137153870Y-99561905D01*
X138020536Y-100057143D02*
X139163393Y-100057143D01*
D10*
X139250596Y-89200000D02*
X139158929Y-89171429D01*
X139016072Y-89171429D01*
X138869643Y-89200000D01*
X138767262Y-89257143D01*
X138712500Y-89314286D01*
X138650596Y-89428571D01*
X138639881Y-89514286D01*
X138673215Y-89628571D01*
X138713691Y-89685714D01*
X138801786Y-89742857D01*
X138941072Y-89771429D01*
X139036310Y-89771429D01*
X139182739Y-89742857D01*
X139233929Y-89714286D01*
X139258929Y-89514286D01*
X139068453Y-89514286D01*
X139655357Y-89771429D02*
X139730357Y-89171429D01*
X140226786Y-89771429D01*
X140301786Y-89171429D01*
X140702976Y-89771429D02*
X140777976Y-89171429D01*
X141016071Y-89171429D01*
X141155358Y-89200000D01*
X141243453Y-89257143D01*
X141283929Y-89314286D01*
X141317263Y-89428571D01*
X141306548Y-89514286D01*
X141244644Y-89628571D01*
X141189882Y-89685714D01*
X141087501Y-89742857D01*
X140941071Y-89771429D01*
X140702976Y-89771429D01*
M02*
